<?xml version="1.0" encoding="UTF-8" standalone="no"?>
<!-- Created with Inkscape (http://www.inkscape.org/) -->

<svg
   width="400"
   height="400"
   viewBox="0 0 105.83333 105.83334"
   version="1.1"
   id="svg1383"
   inkscape:version="1.2 (dc2aedaf03, 2022-05-15)"
   sodipodi:docname="hamza.svg"
   xml:space="preserve"
   xmlns:inkscape="http://www.inkscape.org/namespaces/inkscape"
   xmlns:sodipodi="http://sodipodi.sourceforge.net/DTD/sodipodi-0.dtd"
   xmlns:xlink="http://www.w3.org/1999/xlink"
   xmlns="http://www.w3.org/2000/svg"
   xmlns:svg="http://www.w3.org/2000/svg"><sodipodi:namedview
     id="namedview1385"
     pagecolor="#ffffff"
     bordercolor="#cccccc"
     borderopacity="1"
     inkscape:showpageshadow="0"
     inkscape:pageopacity="1"
     inkscape:pagecheckerboard="0"
     inkscape:deskcolor="#d1d1d1"
     inkscape:document-units="px"
     showgrid="false"
     inkscape:zoom="2.0510462"
     inkscape:cx="132.61525"
     inkscape:cy="222.08178"
     inkscape:window-width="1920"
     inkscape:window-height="1001"
     inkscape:window-x="-9"
     inkscape:window-y="-9"
     inkscape:window-maximized="1"
     inkscape:current-layer="layer1" /><defs
     id="defs1380"><linearGradient
       inkscape:collect="always"
       id="linearGradient345227"><stop
         style="stop-color:#8d8d8d;stop-opacity:1;"
         offset="0"
         id="stop345223" /><stop
         style="stop-color:#f1f1f1;stop-opacity:1;"
         offset="1"
         id="stop345225" /></linearGradient><linearGradient
       inkscape:collect="always"
       id="linearGradient336189"><stop
         style="stop-color:#585858;stop-opacity:1;"
         offset="0"
         id="stop336185" /><stop
         style="stop-color:#f1f1f1;stop-opacity:1;"
         offset="1"
         id="stop336187" /></linearGradient><linearGradient
       inkscape:collect="always"
       id="linearGradient329215"><stop
         style="stop-color:#ffffff;stop-opacity:1;"
         offset="0"
         id="stop329211" /><stop
         style="stop-color:#5d5d5d;stop-opacity:1;"
         offset="0.01114011"
         id="stop331470" /><stop
         style="stop-color:#333333;stop-opacity:1;"
         offset="1"
         id="stop329213" /></linearGradient><inkscape:path-effect
       effect="offset"
       id="path-effect289007"
       is_visible="true"
       lpeversion="1.2"
       linejoin_type="miter"
       unit="px"
       offset="6.3153398"
       miter_limit="4"
       attempt_force_join="false"
       update_on_knot_move="true" /><linearGradient
       inkscape:collect="always"
       id="linearGradient174784"><stop
         style="stop-color:#727272;stop-opacity:1;"
         offset="0"
         id="stop174780" /><stop
         style="stop-color:#404040;stop-opacity:1;"
         offset="0.85199243"
         id="stop174786" /><stop
         style="stop-color:#eaeaea;stop-opacity:1;"
         offset="0.94686908"
         id="stop174782" /></linearGradient><inkscape:path-effect
       effect="mirror_symmetry"
       start_point="7.2480469,68.694334"
       end_point="128.21875,68.694334"
       center_point="67.733399,68.694334"
       id="path-effect43081"
       is_visible="true"
       lpeversion="1.2"
       lpesatellites=""
       mode="Y"
       discard_orig_path="false"
       fuse_paths="true"
       oposite_fuse="false"
       split_items="false"
       split_open="false"
       link_styles="false" /><inkscape:path-effect
       effect="mirror_symmetry"
       start_point="67.733398,0.9610022"
       end_point="67.733398,136.42767"
       center_point="67.733398,68.694335"
       id="path-effect42977"
       is_visible="true"
       lpeversion="1.2"
       lpesatellites=""
       mode="vertical"
       discard_orig_path="false"
       fuse_paths="true"
       oposite_fuse="false"
       split_items="false"
       split_open="false"
       link_styles="false" /><inkscape:path-effect
       effect="mirror_symmetry"
       start_point="68.490409,125.39665"
       end_point="124.78155,125.39665"
       center_point="124.78155,68.69229"
       id="path-effect42925"
       is_visible="true"
       lpeversion="1.2"
       lpesatellites=""
       mode="free"
       discard_orig_path="false"
       fuse_paths="true"
       oposite_fuse="false"
       split_items="false"
       split_open="false"
       link_styles="false" /><linearGradient
       inkscape:collect="always"
       id="linearGradient1085"><stop
         style="stop-color:#3bd100;stop-opacity:1;"
         offset="0"
         id="stop1081" /><stop
         style="stop-color:#000000;stop-opacity:1;"
         offset="1"
         id="stop1083" /></linearGradient><inkscape:path-effect
       effect="mirror_symmetry"
       start_point="0,67.733332"
       end_point="135.46666,67.733332"
       center_point="67.733332,67.733332"
       id="path-effect29630"
       is_visible="true"
       lpeversion="1.2"
       lpesatellites=""
       mode="horizontal"
       discard_orig_path="false"
       fuse_paths="true"
       oposite_fuse="false"
       split_items="false"
       split_open="false"
       link_styles="false" /><linearGradient
       inkscape:collect="always"
       xlink:href="#linearGradient1085"
       id="linearGradient1087"
       x1="28.986177"
       y1="108.98969"
       x2="104.38665"
       y2="108.98969"
       gradientUnits="userSpaceOnUse"
       gradientTransform="matrix(1.2028708,0,0,1.2028708,-16.259845,-20.448382)" /><filter
       style="color-interpolation-filters:sRGB"
       inkscape:label="Drop Shadow"
       id="filter6583"
       x="-0.34753969"
       y="-0.23605001"
       width="1.6219549"
       height="1.4517086"><feFlood
         flood-opacity="0.643137"
         flood-color="rgb(0,0,0)"
         result="flood"
         id="feFlood6573" /><feComposite
         in="flood"
         in2="SourceGraphic"
         operator="in"
         result="composite1"
         id="feComposite6575" /><feGaussianBlur
         in="composite1"
         stdDeviation="6.98413"
         result="blur"
         id="feGaussianBlur6577" /><feOffset
         dx="-4.88959"
         dy="-1.73502"
         result="offset"
         id="feOffset6579" /><feComposite
         in="SourceGraphic"
         in2="offset"
         operator="over"
         result="composite2"
         id="feComposite6581" /></filter><filter
       style="color-interpolation-filters:sRGB"
       inkscape:label="Drop Shadow"
       id="filter89828"
       x="-0.12404162"
       y="-0.098435573"
       width="1.3181819"
       height="1.2415442"><feFlood
         flood-opacity="0.37977805178791613"
         flood-color="rgb(0,0,0)"
         result="flood"
         id="feFlood89818" /><feComposite
         in="flood"
         in2="SourceGraphic"
         operator="in"
         result="composite1"
         id="feComposite89820" /><feGaussianBlur
         in="composite1"
         stdDeviation="1.26984"
         result="blur"
         id="feGaussianBlur89822" /><feOffset
         dx="1.7676767676767753"
         dy="1.41956"
         result="offset"
         id="feOffset89824" /><feComposite
         in="SourceGraphic"
         in2="offset"
         operator="over"
         result="composite2"
         id="feComposite89826" /></filter><linearGradient
       inkscape:collect="always"
       xlink:href="#linearGradient174784"
       id="linearGradient152680"
       x1="20.404066"
       y1="25.7038"
       x2="52.422581"
       y2="25.7038"
       gradientUnits="userSpaceOnUse" /><linearGradient
       inkscape:collect="always"
       xlink:href="#linearGradient329215"
       id="linearGradient331468"
       x1="17.374241"
       y1="41.038399"
       x2="25.447514"
       y2="16.519297"
       gradientUnits="userSpaceOnUse"
       gradientTransform="translate(-0.73916377,-1.4783275)" /><linearGradient
       inkscape:collect="always"
       xlink:href="#linearGradient336189"
       id="linearGradient336191"
       x1="29.308449"
       y1="16.713499"
       x2="16.199244"
       y2="34.126324"
       gradientUnits="userSpaceOnUse"
       gradientTransform="translate(-0.73916377,-1.4783275)" /><linearGradient
       inkscape:collect="always"
       xlink:href="#linearGradient345227"
       id="linearGradient345229"
       x1="18.226057"
       y1="30.750889"
       x2="32.900784"
       y2="14.931129"
       gradientUnits="userSpaceOnUse"
       gradientTransform="translate(-0.73916377,-1.4783275)" /></defs><g
     inkscape:label="Layer 1"
     inkscape:groupmode="layer"
     id="layer1"><g
       id="g89522"
       transform="matrix(0.26622928,0,0,0.26622928,11.931367,-14.320518)"
       style="font-style:italic;font-size:21.3509px;font-family:Alef;-inkscape-font-specification:'Alef Italic';fill:#cdcdcd;fill-opacity:1;stroke:none;stroke-width:0.469255;stroke-linecap:round;stroke-linejoin:round;stroke-dasharray:none;stroke-dashoffset:0;stroke-opacity:1;paint-order:markers stroke fill;stop-color:#000000"><g
         aria-label="SSE/NEON"
         id="text87880"
         style="font-weight:bold;font-stretch:condensed;font-size:17.7498px;font-family:'Noto Sans';-inkscape-font-specification:'Noto Sans Bold Italic Condensed';opacity:1;fill:#cdcdcd;fill-opacity:1;stroke:none;stroke-width:0.418292;stroke-opacity:1;paint-order:fill markers stroke;stop-color:#000000"
         transform="matrix(2.0637713,0,0,2.0637713,51.255392,-75.068596)"><path
           id="path126391"
           style="fill:#cdcdcd;fill-opacity:1;stroke:none;stroke-opacity:1"
           d="m 118.55775,184.31597 c -0.79282,0 -1.50163,0.17758 -2.12879,0.53258 -0.62716,0.35499 -1.18423,0.83387 -1.66939,1.43736 -0.47333,0.59166 -0.8687,1.27242 -1.18819,2.04158 -0.30767,0.75732 -0.54446,1.54962 -0.71012,2.37794 -0.15383,0.8165 -0.23203,1.61565 -0.23203,2.39664 0,2.83997 1.23098,4.25912 3.69228,4.25912 0.82832,0 1.56298,-0.18818 2.20198,-0.56684 0.63899,-0.37866 1.18921,-0.88184 1.6507,-1.50899 0.4615,-0.639 0.83942,-1.34406 1.13525,-2.11322 0.29583,-0.78098 0.51517,-1.57328 0.65716,-2.37794 0.142,-0.80466 0.21335,-1.56737 0.21335,-2.28919 0,-1.34898 -0.29598,-2.38492 -0.88764,-3.10674 -0.59166,-0.72183 -1.50391,-1.0823 -2.73456,-1.0823 z m -50.159569,0.0171 c -0.875656,0 -1.615613,0.16543 -2.219105,0.49676 -0.603493,0.33133 -1.064915,0.79276 -1.384411,1.38442 -0.319496,0.57982 -0.479638,1.24313 -0.479638,1.98862 0,0.76916 0.153288,1.40817 0.460951,1.917 0.319496,0.49699 0.740725,0.97057 1.261386,1.42023 0.461495,0.40233 0.785518,0.74536 0.974849,1.02935 0.189331,0.284 0.28498,0.63233 0.28498,1.04648 0,0.568 -0.177589,0.98238 -0.532585,1.2427 -0.354996,0.2485 -0.774669,0.37375 -1.259829,0.37375 -0.437828,0 -0.881802,-0.0888 -1.331463,-0.26629 -0.449662,-0.1775 -0.858741,-0.39684 -1.225569,-0.65717 l -0.31924,2.325 c 0.721824,0.48516 1.674266,0.72724 2.857585,0.72724 0.887489,0 1.651747,-0.17073 2.29074,-0.5139 0.638992,-0.34316 1.130012,-0.81673 1.473174,-1.42022 0.343163,-0.61533 0.513898,-1.31354 0.513898,-2.09453 0,-0.70999 -0.13584,-1.3194 -0.408004,-1.82823 -0.260329,-0.52066 -0.667851,-1.00638 -1.224012,-1.45604 -0.496994,-0.40233 -0.852173,-0.74536 -1.06517,-1.02936 -0.212997,-0.29582 -0.320797,-0.63885 -0.320797,-1.02935 0,-0.49699 0.147991,-0.87492 0.443821,-1.13525 0.307662,-0.27216 0.681847,-0.408 1.119675,-0.408 0.29583,0 0.60926,0.0645 0.940589,0.19466 0.343163,0.11833 0.698342,0.29592 1.065171,0.53258 l 0.993536,-2.00576 c -0.414162,-0.27216 -0.875583,-0.47935 -1.38441,-0.62135 -0.496994,-0.142 -1.005462,-0.21334 -1.526122,-0.21334 z m 7.879771,0 c -0.875656,0 -1.615613,0.16543 -2.219105,0.49676 -0.603493,0.33133 -1.064914,0.79276 -1.384411,1.38442 -0.319495,0.57982 -0.478081,1.24313 -0.478081,1.98862 0,0.76916 0.153288,1.40817 0.460951,1.917 0.319496,0.49699 0.739169,0.97057 1.259829,1.42023 0.461494,0.40233 0.787075,0.74536 0.976407,1.02935 0.189331,0.284 0.284979,0.63233 0.284979,1.04648 0,0.568 -0.177589,0.98238 -0.532585,1.2427 -0.354995,0.2485 -0.776225,0.37375 -1.261386,0.37375 -0.437828,0 -0.880245,-0.0888 -1.329906,-0.26629 -0.449661,-0.1775 -0.85874,-0.39684 -1.225569,-0.65717 l -0.31924,2.325 c 0.721825,0.48516 1.674266,0.72724 2.857585,0.72724 0.887488,0 1.65019,-0.17073 2.289182,-0.5139 0.638992,-0.34316 1.130013,-0.81673 1.473175,-1.42022 0.343162,-0.61533 0.515455,-1.31354 0.515455,-2.09453 0,-0.70999 -0.13584,-1.3194 -0.408004,-1.82823 -0.26033,-0.52066 -0.669409,-1.00638 -1.225569,-1.45604 -0.496994,-0.40233 -0.852173,-0.74536 -1.06517,-1.02936 -0.212998,-0.29582 -0.31924,-0.63885 -0.31924,-1.02935 0,-0.49699 0.147991,-0.87492 0.443821,-1.13525 0.307663,-0.27216 0.68029,-0.408 1.118118,-0.408 0.295829,0 0.60926,0.0645 0.940589,0.19466 0.343162,0.11833 0.698342,0.29592 1.065171,0.53258 l 0.995093,-2.00576 c -0.414161,-0.27216 -0.87714,-0.47935 -1.385967,-0.62135 -0.496994,-0.142 -1.005462,-0.21334 -1.526122,-0.21334 z m 16.134843,0.10745 -6.974999,12.81475 h 2.147472 l 6.974998,-12.81475 z m -11.075283,0.0701 -2.680056,12.67304 h 5.768117 l 0.426691,-2.02289 h -3.425987 l 0.76306,-3.55056 h 3.176825 l 0.426691,-2.00576 h -3.178382 l 0.657167,-3.06938 h 3.408857 l 0.425134,-2.02445 z m 14.571343,0 -2.680052,12.67304 h 2.166162 l 1.2427,-5.78524 c 0.0473,-0.27216 0.10652,-0.6046 0.17752,-0.9951 0.071,-0.3905 0.14079,-0.78587 0.21179,-1.18819 0.071,-0.41416 0.12487,-0.76934 0.1604,-1.06517 h 0.0529 l 1.96994,9.0337 h 2.645795 l 2.68005,-12.67304 h -2.18328 l -1.2427,5.85844 c -0.0828,0.37866 -0.17163,0.84538 -0.2663,1.40154 -0.0947,0.55616 -0.18346,1.07678 -0.26629,1.56194 h -0.0529 l -1.934115,-8.82192 z m 10.988075,0 -2.68006,12.67304 h 5.76812 l 0.42669,-2.02289 h -3.42599 l 0.76307,-3.55056 h 3.17682 l 0.42669,-2.00576 h -3.17682 l 0.65561,-3.06938 h 3.40885 l 0.42514,-2.02445 z m 18.31813,0 -2.68005,12.67304 h 2.1646 l 1.2427,-5.78524 c 0.0473,-0.27216 0.10652,-0.6046 0.17752,-0.9951 0.071,-0.3905 0.14236,-0.78587 0.21335,-1.18819 0.071,-0.41416 0.12337,-0.76934 0.15884,-1.06517 h 0.053 l 1.9715,9.0337 h 2.64424 l 2.68005,-12.67304 h -2.18328 l -1.2427,5.85844 c -0.0828,0.37866 -0.17163,0.84538 -0.2663,1.40154 -0.0947,0.55616 -0.18346,1.07678 -0.26629,1.56194 h -0.053 l -1.93412,-8.82192 z m -6.85197,1.84692 c 0.93482,0 1.40154,0.7088 1.40154,2.12879 0,0.55616 -0.047,1.14812 -0.14171,1.77528 -0.0947,0.61533 -0.23581,1.22474 -0.42514,1.82823 -0.18933,0.59166 -0.41396,1.12973 -0.67429,1.61489 -0.26033,0.48516 -0.56317,0.87679 -0.90633,1.17262 -0.34316,0.284 -0.7158,0.42514 -1.11812,0.42514 -0.4615,0 -0.81668,-0.16545 -1.06517,-0.49677 -0.23667,-0.34317 -0.35506,-0.91083 -0.35506,-1.70365 0,-0.497 0.0417,-1.04721 0.12458,-1.65071 0.0947,-0.60349 0.23051,-1.20075 0.40801,-1.79241 0.18932,-0.60349 0.41396,-1.15371 0.67429,-1.6507 0.26033,-0.497 0.56317,-0.89393 0.90633,-1.18976 0.355,-0.30766 0.74507,-0.46095 1.17107,-0.46095 z" /></g></g><g
       aria-label="Hamza"
       id="text15942"
       style="font-style:italic;font-size:21.3509px;font-family:Alef;-inkscape-font-specification:'Alef Italic';fill:none;fill-opacity:1;stroke:none;stroke-width:0.469255;stroke-linecap:round;stroke-linejoin:round;stroke-dasharray:none;stroke-dashoffset:0;stroke-opacity:1;paint-order:markers stroke fill;stop-color:#000000"
       transform="matrix(0.74961918,0,0,0.74961918,27.293176,-49.930004)"><g
         aria-label="Hamza"
         id="text58273"
         style="font-size:28.9927px;font-family:'Noto Sans';-inkscape-font-specification:'Noto Sans';opacity:1;fill:#848484;fill-opacity:1;stroke:none;stroke-width:0.595146;paint-order:fill markers stroke;stop-color:#000000"
         transform="matrix(1.07334,0,0,1.07334,-1.3153444,-17.077832)"><path
           id="path126380"
           style="font-weight:bold;font-stretch:condensed;-inkscape-font-specification:'Noto Sans Bold Italic Condensed';fill:#848484;fill-opacity:1;stroke:none"
           d="m -2.1349779,169.30544 -4.3780761,20.70148 h 3.8559398 l 1.91308208,-9.10389 H 4.4464924 l -1.9141455,9.10389 H 6.3595745 L 10.737651,169.30544 H 6.9104231 l -1.7397456,8.23401 h -5.21817334 l 1.76845774,-8.23401 z m 19.5700109,4.6099 c -0.86978,0 -1.662642,0.25142 -2.377794,0.75396 -0.695825,0.48321 -1.314462,1.14044 -1.855658,1.97157 -0.521868,0.83112 -0.96628,1.74916 -1.333521,2.75424 -0.347912,1.00508 -0.608717,2.02953 -0.782673,3.07327 -0.173956,1.0244 -0.260536,1.99043 -0.260536,2.89886 0,1.6236 0.338001,2.85149 1.014497,3.68261 0.676495,0.83112 1.536106,1.24632 2.579842,1.24632 0.792467,0 1.478917,-0.21282 2.05877,-0.63805 0.599182,-0.44455 1.159391,-1.01414 1.681258,-1.70997 h 0.0872 l -0.05742,2.05877 h 2.898867 l 3.363579,-15.80127 h -3.073267 l -0.725249,1.97157 h -0.115912 c -0.541197,-1.50762 -1.575032,-2.26188 -3.101979,-2.26188 z m 17.192217,0 c -0.831123,0 -1.574939,0.23265 -2.232106,0.69653 -0.657168,0.44456 -1.227823,1.04337 -1.711034,1.79717 h -0.115912 l 0.231824,-2.20339 h -2.957354 l -3.362516,15.80127 h 3.740028 l 1.681257,-7.88628 c 0.173956,-0.83112 0.396163,-1.62399 0.666761,-2.37779 0.270598,-0.75382 0.599216,-1.37245 0.985785,-1.85566 0.405897,-0.48321 0.879524,-0.72419 1.420721,-0.72419 0.715153,0 1.072985,0.46318 1.072985,1.39095 0,0.23195 -0.02921,0.51258 -0.0872,0.84116 -0.03866,0.30926 -0.09602,0.64726 -0.173336,1.0145 l -2.030058,9.59731 h 3.711316 l 1.797169,-8.43713 c 0.1353,-0.73448 0.328291,-1.4397 0.579561,-2.11619 0.270598,-0.6765 0.589832,-1.22732 0.957073,-1.65255 0.386569,-0.42522 0.830982,-0.63805 1.333521,-0.63805 0.734482,0 1.101697,0.47363 1.101697,1.42073 0,0.23194 -0.02815,0.51151 -0.08614,0.84009 -0.05799,0.32858 -0.125799,0.68641 -0.203112,1.07299 l -2.000282,9.51011 h 3.740027 l 2.116194,-10.06096 c 0.09664,-0.44455 0.164453,-0.86914 0.203113,-1.27503 0.05799,-0.42523 0.08614,-0.80289 0.08614,-1.13148 0,-1.14038 -0.279572,-2.0292 -0.840097,-2.66704 -0.541197,-0.63784 -1.334058,-0.95707 -2.377794,-0.95707 -0.831123,0 -1.59477,0.21282 -2.290594,0.63805 -0.676496,0.42522 -1.256535,0.99588 -1.739746,1.71103 h -0.08614 c -0.193285,-0.77314 -0.551117,-1.35318 -1.072985,-1.73975 -0.50254,-0.4059 -1.18899,-0.60933 -2.05877,-0.60933 z m 29.543772,0 c -0.86978,0 -1.662641,0.25142 -2.377794,0.75396 -0.695824,0.48321 -1.314461,1.14044 -1.855658,1.97157 -0.521868,0.83112 -0.966281,1.74916 -1.333521,2.75424 -0.347912,1.00508 -0.608717,2.02953 -0.782673,3.07327 -0.173956,1.0244 -0.260536,1.99043 -0.260536,2.89886 0,1.6236 0.338002,2.85149 1.014497,3.68261 0.676496,0.83112 1.53717,1.24632 2.580906,1.24632 0.792466,0 1.477853,-0.21282 2.057707,-0.63805 0.599182,-0.44455 1.160453,-1.01414 1.682321,-1.70997 h 0.08614 l -0.05742,2.05877 h 2.898867 l 3.363579,-15.80127 H 68.11417 l -0.725248,1.97157 h -0.115913 c -0.541196,-1.50762 -1.575031,-2.26188 -3.101979,-2.26188 z m -15.510959,0.29031 -0.66676,3.04455 h 4.6971 l -7.248231,10.49484 -0.464712,2.26188 h 9.481401 l 0.66676,-3.07327 h -5.132036 l 7.073831,-10.23429 0.522136,-2.49371 z m -30.558269,2.87015 c 0.463883,0 0.821715,0.18361 1.072985,0.55085 0.251269,0.34792 0.376448,0.84031 0.376448,1.47815 0,0.46388 -0.02921,0.95734 -0.0872,1.47921 -0.05799,0.50254 -0.17378,1.13055 -0.347736,1.88437 -0.173957,0.73448 -0.405547,1.46891 -0.695473,2.20339 -0.289927,0.71515 -0.647759,1.31396 -1.072985,1.79717 -0.405897,0.48321 -0.879525,0.72525 -1.420721,0.72525 -0.850452,0 -1.276097,-0.73443 -1.276097,-2.20339 0,-0.73448 0.07826,-1.54612 0.232887,-2.43522 0.173957,-0.90844 0.414931,-1.7785 0.724186,-2.60962 0.309255,-0.83112 0.676471,-1.51757 1.101697,-2.05877 0.425226,-0.54119 0.889469,-0.81139 1.392009,-0.81139 z m 46.735989,0 c 0.463882,0 0.821714,0.18361 1.072985,0.55085 0.25127,0.34792 0.376448,0.84031 0.376448,1.47815 0,0.46388 -0.02921,0.95734 -0.0872,1.47921 -0.05799,0.50254 -0.173781,1.13055 -0.347737,1.88437 -0.173956,0.73448 -0.405546,1.46891 -0.695473,2.20339 -0.289926,0.71515 -0.647758,1.31396 -1.072985,1.79717 -0.405897,0.48321 -0.879524,0.72525 -1.420721,0.72525 -0.850452,0 -1.275034,-0.73443 -1.275034,-2.20339 0,-0.73448 0.0772,-1.54612 0.231825,-2.43522 0.173956,-0.90844 0.41493,-1.7785 0.724185,-2.60962 0.309255,-0.83112 0.676471,-1.51757 1.101697,-2.05877 0.425225,-0.54119 0.889469,-0.81139 1.39201,-0.81139 z" /></g></g><g
       aria-label="ุก"
       id="g170252"
       style="font-style:italic;font-weight:bold;font-size:179.455px;font-family:Aldhabi;-inkscape-font-specification:'Aldhabi Bold Italic';opacity:1;fill:#999999;fill-opacity:1;stroke:url(#linearGradient152680);stroke-width:0.640336;stroke-linecap:round;stroke-linejoin:round;stroke-dasharray:none;stroke-opacity:1;paint-order:stroke fill markers;stop-color:#000000"
       transform="matrix(0.92720834,0,0,0.92720834,1.5208925,1.9778888)"
       inkscape:label="hamza" /><g
       aria-label="C99 Typography Library"
       id="text181327"
       style="font-style:italic;font-weight:bold;font-size:3.45862px;font-family:Aldhabi;-inkscape-font-specification:'Aldhabi Bold Italic';opacity:1;fill:#cccccc;stroke-width:0.146436;stroke-linecap:round;stroke-linejoin:round;stop-color:#000000;fill-opacity:1"
       transform="matrix(1.6557239,0,0,1.6557239,0.22217439,0.70659849)"><path
         d="m 8.8121587,58.399767 q -0.4496207,0 -0.6778896,-0.262855 -0.2282689,-0.262855 -0.2282689,-0.705558 0,-0.217894 0.048421,-0.439245 0.051879,-0.224811 0.1521793,-0.42541 0.1037586,-0.204059 0.2593965,-0.363156 0.1556379,-0.162555 0.3700723,-0.252479 0.2144345,-0.09338 0.4911241,-0.09338 0.2351861,0 0.3977413,0.04496 0.1660137,0.0415 0.3285689,0.131428 l -0.2006,0.421952 q -0.1175931,-0.06917 -0.245562,-0.114135 -0.1245103,-0.04842 -0.2801482,-0.04842 -0.2075172,0 -0.3596965,0.103758 -0.1487207,0.103759 -0.2455621,0.269773 -0.096841,0.166013 -0.145262,0.363155 -0.044962,0.193682 -0.044962,0.373531 0,0.280148 0.1141345,0.418493 0.1175931,0.138344 0.3700724,0.138344 0.1383448,0 0.2836068,-0.03459 0.145262,-0.03804 0.2870655,-0.09684 v 0.439245 q -0.1037586,0.0415 -0.2766896,0.08646 -0.172931,0.04496 -0.3977413,0.04496 z"
         style="font-family:'Noto Sans';-inkscape-font-specification:'Noto Sans Bold Italic';fill:#cccccc;fill-opacity:1"
         id="path328435" /><path
         d="m 10.365077,58.399767 q -0.114134,0 -0.22481,-0.01729 -0.110676,-0.01729 -0.1798483,-0.03805 V 57.9121 q 0.065714,0.02421 0.1660143,0.04842 0.103758,0.02075 0.217893,0.02075 0.186765,0 0.318193,-0.06226 0.131427,-0.06571 0.217893,-0.172931 0.08647,-0.107217 0.141803,-0.242103 0.05534,-0.134887 0.08992,-0.273231 h -0.01383 q -0.08301,0.117593 -0.204059,0.193682 -0.121052,0.07263 -0.293983,0.07263 -0.293982,0 -0.435786,-0.186765 -0.141803,-0.186766 -0.141803,-0.470372 0,-0.138345 0.0415,-0.304359 0.04496,-0.169472 0.148721,-0.321652 0.103759,-0.155638 0.287065,-0.255938 0.183307,-0.1003 0.459997,-0.1003 0.314734,0 0.504958,0.193683 0.193683,0.190224 0.193683,0.622552 0,0.245562 -0.05188,0.508417 -0.05188,0.259396 -0.159097,0.498041 -0.103758,0.235186 -0.259396,0.397742 -0.145262,0.14872 -0.345862,0.235186 -0.2006,0.08646 -0.47729,0.08646 z m 0.408117,-1.3039 q 0.1003,0 0.17639,-0.05188 0.07609,-0.05534 0.12451,-0.134886 0.04842,-0.07955 0.06226,-0.155638 0.0069,-0.03805 0.01037,-0.07609 0.0035,-0.0415 0.0035,-0.07955 0,-0.141803 -0.0588,-0.231727 -0.0588,-0.08993 -0.186766,-0.08993 -0.127969,0 -0.210976,0.08301 -0.07955,0.07955 -0.121052,0.2006 -0.0415,0.117593 -0.0415,0.238645 0,0.145262 0.06226,0.221352 0.06571,0.07609 0.179848,0.07609 z"
         style="font-family:'Noto Sans';-inkscape-font-specification:'Noto Sans Bold Italic';fill:#cccccc;fill-opacity:1"
         id="path328437" /><path
         d="m 12.270779,58.399767 q -0.114134,0 -0.22481,-0.01729 -0.110676,-0.01729 -0.179848,-0.03805 V 57.9121 q 0.06571,0.02421 0.166013,0.04842 0.103759,0.02075 0.217893,0.02075 0.186766,0 0.318193,-0.06226 0.131428,-0.06571 0.217894,-0.172931 0.08647,-0.107217 0.141803,-0.242103 0.05534,-0.134887 0.08992,-0.273231 h -0.01383 q -0.08301,0.117593 -0.204059,0.193682 -0.121052,0.07263 -0.293983,0.07263 -0.293982,0 -0.435786,-0.186765 -0.141803,-0.186766 -0.141803,-0.470372 0,-0.138345 0.0415,-0.304359 0.04496,-0.169472 0.148721,-0.321652 0.103758,-0.155638 0.287065,-0.255938 0.183307,-0.1003 0.459997,-0.1003 0.314734,0 0.504958,0.193683 0.193683,0.190224 0.193683,0.622552 0,0.245562 -0.05188,0.508417 -0.05188,0.259396 -0.159097,0.498041 -0.103758,0.235186 -0.259396,0.397742 -0.145262,0.14872 -0.345862,0.235186 -0.2006,0.08646 -0.47729,0.08646 z m 0.408117,-1.3039 q 0.1003,0 0.17639,-0.05188 0.07609,-0.05534 0.12451,-0.134886 0.04842,-0.07955 0.06226,-0.155638 0.0069,-0.03805 0.01038,-0.07609 0.0035,-0.0415 0.0035,-0.07955 0,-0.141803 -0.0588,-0.231727 -0.0588,-0.08993 -0.186765,-0.08993 -0.127969,0 -0.210976,0.08301 -0.07955,0.07955 -0.121052,0.2006 -0.0415,0.117593 -0.0415,0.238645 0,0.145262 0.06226,0.221352 0.06571,0.07609 0.179848,0.07609 z"
         style="font-family:'Noto Sans';-inkscape-font-specification:'Noto Sans Bold Italic';fill:#cccccc;fill-opacity:1"
         id="path328439" /><path
         d="m 14.975423,58.365181 0.428869,-2.033669 h -0.594883 l 0.09338,-0.435786 h 1.705099 l -0.09338,0.435786 h -0.594883 l -0.428869,2.033669 z"
         style="font-family:'Noto Sans';-inkscape-font-specification:'Noto Sans Bold Italic';fill:#cccccc;fill-opacity:1"
         id="path328441" /><path
         d="m 16.303532,59.19525 q -0.08992,0 -0.148721,-0.01038 -0.0588,-0.0069 -0.1003,-0.02075 v -0.404658 q 0.04496,0.0069 0.09338,0.01383 0.04496,0.0069 0.103759,0.0069 0.159096,0 0.262855,-0.09338 0.103758,-0.09338 0.183307,-0.238645 l 0.04496,-0.08301 -0.27669,-1.888407 h 0.498041 l 0.09338,0.875031 q 0.01383,0.117593 0.01729,0.255938 0.0035,0.138345 0.0035,0.238645 h 0.01383 q 0.03459,-0.08647 0.07263,-0.2006 0.0415,-0.117593 0.110676,-0.259397 l 0.439245,-0.909617 h 0.553379 l -1.148262,2.158179 q -0.152179,0.287066 -0.359696,0.421952 -0.204059,0.138345 -0.456538,0.138345 z"
         style="font-family:'Noto Sans';-inkscape-font-specification:'Noto Sans Bold Italic';fill:#cccccc;fill-opacity:1"
         id="path328443" /><path
         d="m 17.974042,59.19525 0.577589,-2.718476 h 0.387366 l -0.02767,0.287066 h 0.01383 q 0.08992,-0.121052 0.221352,-0.221352 0.131428,-0.1003 0.314734,-0.1003 0.134887,0 0.255938,0.06917 0.124511,0.06571 0.2006,0.217893 0.07609,0.14872 0.07609,0.4012 0,0.228269 -0.06226,0.456537 -0.06226,0.224811 -0.17639,0.408118 -0.114134,0.183306 -0.276689,0.293982 -0.159097,0.110676 -0.359697,0.110676 -0.172931,0 -0.266314,-0.07955 -0.09338,-0.07955 -0.162555,-0.197141 h -0.01383 q -0.01038,0.138344 -0.02767,0.252479 -0.01729,0.114134 -0.04496,0.245562 l -0.121052,0.574131 z m 1.058338,-1.207059 q 0.09338,0 0.172931,-0.07263 0.08301,-0.07609 0.141803,-0.197141 0.06226,-0.121052 0.09684,-0.269772 0.03459,-0.148721 0.03459,-0.297442 0,-0.297441 -0.221352,-0.297441 -0.12451,0 -0.210976,0.08992 -0.08647,0.08992 -0.141803,0.22481 -0.05534,0.134887 -0.08301,0.27669 -0.02421,0.141803 -0.02421,0.245562 0,0.134886 0.06226,0.217893 0.06571,0.07955 0.172931,0.07955 z"
         style="font-family:'Noto Sans';-inkscape-font-specification:'Noto Sans Bold Italic';fill:#cccccc;fill-opacity:1"
         id="path328445" /><path
         d="m 21.021084,58.399767 q -0.210976,0 -0.37699,-0.08646 -0.162555,-0.08992 -0.255938,-0.25248 -0.08992,-0.162555 -0.08992,-0.387365 0,-0.249021 0.06226,-0.470372 0.06226,-0.224811 0.186766,-0.394283 0.12451,-0.172931 0.311276,-0.269772 0.190224,-0.09684 0.442703,-0.09684 0.328569,0 0.522252,0.197142 0.193682,0.197141 0.193682,0.54992 0,0.238645 -0.0588,0.456538 -0.0588,0.217893 -0.183307,0.387365 -0.121052,0.169473 -0.311276,0.269773 -0.186765,0.09684 -0.442703,0.09684 z m 0.0415,-0.415034 q 0.141804,0 0.238645,-0.114135 0.1003,-0.114134 0.152179,-0.293982 0.05188,-0.183307 0.05188,-0.387366 0,-0.141803 -0.05534,-0.235186 -0.05188,-0.09684 -0.186766,-0.09684 -0.114134,0 -0.2006,0.07955 -0.08647,0.07609 -0.141803,0.2006 -0.05534,0.12451 -0.08301,0.266314 -0.02767,0.141803 -0.02767,0.269772 0,0.311276 0.252479,0.311276 z"
         style="font-family:'Noto Sans';-inkscape-font-specification:'Noto Sans Bold Italic';fill:#cccccc;fill-opacity:1"
         id="path328447" /><path
         d="m 22.829939,59.19525 q -0.210976,0 -0.349321,-0.03113 -0.138344,-0.03113 -0.266313,-0.08992 v -0.442703 q 0.131427,0.06917 0.276689,0.107217 0.148721,0.03805 0.311276,0.03805 0.17639,0 0.287065,-0.08301 0.110676,-0.07955 0.159097,-0.252479 l 0.01383,-0.05188 q 0.01384,-0.0588 0.03459,-0.121051 0.02075,-0.06571 0.03459,-0.110676 0.01383,-0.04496 0.01383,-0.04496 h -0.01383 q -0.08992,0.117593 -0.207517,0.204058 -0.117593,0.08301 -0.293983,0.08301 -0.134886,0 -0.252479,-0.07263 -0.114135,-0.07263 -0.186766,-0.221352 -0.06917,-0.152179 -0.06917,-0.390824 0,-0.231727 0.06225,-0.456537 0.06226,-0.224811 0.17639,-0.408118 0.114134,-0.186765 0.273231,-0.297441 0.159096,-0.110676 0.352779,-0.110676 0.183307,0 0.287065,0.07609 0.107218,0.07263 0.190224,0.2006 h 0.01384 l 0.09684,-0.242104 h 0.390824 l -0.411575,1.933369 q -0.06226,0.297441 -0.193683,0.466914 -0.127969,0.172931 -0.314735,0.245562 -0.183307,0.07263 -0.415034,0.07263 z m 0.245562,-1.207059 q 0.107217,0 0.186765,-0.07955 0.08301,-0.08301 0.138345,-0.210976 0.0588,-0.127969 0.08647,-0.273231 0.03113,-0.145262 0.03113,-0.273231 0,-0.134886 -0.06226,-0.214434 -0.06226,-0.08301 -0.169472,-0.08301 -0.09684,0 -0.179848,0.07609 -0.07955,0.07263 -0.141804,0.193682 -0.0588,0.121052 -0.09338,0.269773 -0.03459,0.14872 -0.03459,0.297441 0,0.148721 0.06226,0.22481 0.06571,0.07263 0.17639,0.07263 z"
         style="font-family:'Noto Sans';-inkscape-font-specification:'Noto Sans Bold Italic';fill:#cccccc;fill-opacity:1"
         id="path328449" /><path
         d="m 24.286018,58.365181 0.4012,-1.888407 h 0.387366 l -0.03459,0.349321 h 0.01729 q 0.114135,-0.179848 0.259397,-0.280148 0.145262,-0.103759 0.328569,-0.103759 0.0415,0 0.08647,0.0069 0.04842,0.0035 0.07609,0.01038 l -0.110676,0.491124 q -0.02767,-0.01038 -0.07263,-0.01729 -0.04496,-0.01038 -0.09684,-0.01038 -0.190224,0 -0.342404,0.15218 -0.14872,0.14872 -0.210975,0.446162 l -0.179849,0.843903 z"
         style="font-family:'Noto Sans';-inkscape-font-specification:'Noto Sans Bold Italic';fill:#cccccc;fill-opacity:1"
         id="path328451" /><path
         d="m 26.295474,58.399767 q -0.138345,0 -0.259397,-0.06571 -0.121052,-0.06917 -0.197141,-0.217893 -0.07609,-0.152179 -0.07609,-0.4012 0,-0.231727 0.06226,-0.456537 0.06226,-0.224811 0.17639,-0.408118 0.114134,-0.186765 0.273231,-0.297441 0.162555,-0.110676 0.363155,-0.110676 0.179848,0 0.290524,0.07609 0.114134,0.07609 0.17639,0.2006 h 0.01383 l 0.09684,-0.242104 h 0.390825 l -0.4012,1.888407 h -0.380449 l 0.02421,-0.245562 h -0.01383 q -0.1003,0.12451 -0.231727,0.204059 -0.127969,0.07609 -0.307817,0.07609 z m 0.200599,-0.411576 q 0.103759,0 0.193683,-0.08301 0.08992,-0.08301 0.152179,-0.210975 0.06571,-0.131428 0.09338,-0.280149 0.02421,-0.12451 0.02421,-0.283606 0,-0.121052 -0.06226,-0.197142 -0.06225,-0.07955 -0.172931,-0.07955 -0.09338,0 -0.176389,0.07609 -0.07955,0.07263 -0.141804,0.193682 -0.0588,0.121052 -0.09338,0.269773 -0.03459,0.14872 -0.03459,0.297441 0,0.297441 0.217893,0.297441 z"
         style="font-family:'Noto Sans';-inkscape-font-specification:'Noto Sans Bold Italic';fill:#cccccc;fill-opacity:1"
         id="path328453" /><path
         d="m 27.550951,59.19525 0.577589,-2.718476 h 0.387366 l -0.02767,0.287066 h 0.01383 q 0.08992,-0.121052 0.221352,-0.221352 0.131428,-0.1003 0.314734,-0.1003 0.134887,0 0.255938,0.06917 0.124511,0.06571 0.2006,0.217893 0.07609,0.14872 0.07609,0.4012 0,0.228269 -0.06226,0.456537 -0.06226,0.224811 -0.17639,0.408118 -0.114134,0.183306 -0.276689,0.293982 -0.159097,0.110676 -0.359697,0.110676 -0.172931,0 -0.266314,-0.07955 -0.09338,-0.07955 -0.162555,-0.197141 h -0.01383 q -0.01038,0.138344 -0.02767,0.252479 -0.01729,0.114134 -0.04496,0.245562 l -0.121052,0.574131 z m 1.058338,-1.207059 q 0.09338,0 0.172931,-0.07263 0.08301,-0.07609 0.141803,-0.197141 0.06226,-0.121052 0.09684,-0.269772 0.03459,-0.148721 0.03459,-0.297442 0,-0.297441 -0.221352,-0.297441 -0.12451,0 -0.210976,0.08992 -0.08647,0.08992 -0.141803,0.22481 -0.05534,0.134887 -0.08301,0.27669 -0.02421,0.141803 -0.02421,0.245562 0,0.134886 0.06226,0.217893 0.06571,0.07955 0.172931,0.07955 z"
         style="font-family:'Noto Sans';-inkscape-font-specification:'Noto Sans Bold Italic';fill:#cccccc;fill-opacity:1"
         id="path328455" /><path
         d="m 29.785217,58.365181 0.556838,-2.628551 h 0.508417 l -0.09684,0.456538 q -0.01729,0.07955 -0.0415,0.172931 -0.02421,0.09338 -0.04842,0.176389 -0.02421,0.08301 -0.0415,0.134886 -0.01729,0.05188 -0.01729,0.05188 h 0.01384 q 0.103758,-0.127969 0.231727,-0.207518 0.127969,-0.07955 0.297441,-0.07955 0.242104,0 0.363155,0.148721 0.124511,0.145262 0.124511,0.394283 0,0.12451 -0.03805,0.304358 l -0.22481,1.075631 h -0.508417 l 0.231727,-1.1033 q 0.02767,-0.121052 0.02767,-0.2006 0,-0.207517 -0.183307,-0.207517 -0.117593,0 -0.210976,0.1003 -0.08992,0.09684 -0.159096,0.262855 -0.06571,0.166014 -0.110676,0.366614 l -0.166014,0.781648 z"
         style="font-family:'Noto Sans';-inkscape-font-specification:'Noto Sans Bold Italic';fill:#cccccc;fill-opacity:1"
         id="path328457" /><path
         d="m 31.822346,59.19525 q -0.08992,0 -0.148721,-0.01038 -0.0588,-0.0069 -0.1003,-0.02075 v -0.404658 q 0.04496,0.0069 0.09338,0.01383 0.04496,0.0069 0.103759,0.0069 0.159096,0 0.262855,-0.09338 0.103759,-0.09338 0.183307,-0.238645 l 0.04496,-0.08301 -0.27669,-1.888407 h 0.498042 l 0.09338,0.875031 q 0.01384,0.117593 0.01729,0.255938 0.0035,0.138345 0.0035,0.238645 h 0.01383 q 0.03459,-0.08647 0.07263,-0.2006 0.0415,-0.117593 0.110676,-0.259397 l 0.439245,-0.909617 h 0.553379 l -1.148262,2.158179 q -0.152179,0.287066 -0.359696,0.421952 -0.204059,0.138345 -0.456538,0.138345 z"
         style="font-family:'Noto Sans';-inkscape-font-specification:'Noto Sans Bold Italic';fill:#cccccc;fill-opacity:1"
         id="path328459" /><path
         d="m 34.596156,58.365181 0.522252,-2.469455 h 0.515334 l -0.432328,2.037127 h 0.864655 l -0.08992,0.432328 z"
         style="font-family:'Noto Sans';-inkscape-font-specification:'Noto Sans Bold Italic';fill:#cccccc;fill-opacity:1"
         id="path328461" /><path
         d="m 37.096738,56.241588 q -0.107217,0 -0.183307,-0.04496 -0.07263,-0.04842 -0.07263,-0.162555 0,-0.145262 0.07955,-0.221352 0.08301,-0.07609 0.228269,-0.07609 0.1003,0 0.17639,0.04496 0.07609,0.04496 0.07609,0.159096 0,0.134886 -0.07609,0.217893 -0.07263,0.08301 -0.228269,0.08301 z m -0.736686,2.123593 0.4012,-1.888407 h 0.508417 l -0.4012,1.888407 z"
         style="font-family:'Noto Sans';-inkscape-font-specification:'Noto Sans Bold Italic';fill:#cccccc;fill-opacity:1"
         id="path328463" /><path
         d="m 38.355678,58.399767 q -0.179849,0 -0.293983,-0.07609 -0.110676,-0.07609 -0.172931,-0.2006 h -0.01384 l -0.09684,0.242103 H 37.38726 l 0.556838,-2.628551 h 0.508417 l -0.103759,0.487665 q -0.01383,0.06917 -0.03804,0.162555 -0.02421,0.08992 -0.05188,0.183307 -0.02767,0.09338 -0.05188,0.159097 h 0.01383 q 0.08993,-0.114135 0.197142,-0.2006 0.107217,-0.08647 0.280148,-0.08647 0.134886,0 0.255938,0.06917 0.12451,0.06571 0.2006,0.217893 0.07609,0.14872 0.07609,0.397741 0,0.231728 -0.06226,0.456538 -0.06226,0.22481 -0.176389,0.411576 -0.114135,0.183306 -0.27669,0.293982 -0.159096,0.110676 -0.359696,0.110676 z m -0.08647,-0.411576 q 0.09338,0 0.172931,-0.07263 0.08301,-0.07609 0.141804,-0.197141 0.06226,-0.121052 0.09684,-0.269772 0.03459,-0.148721 0.03459,-0.297442 0,-0.297441 -0.221352,-0.297441 -0.12451,0 -0.210975,0.08992 -0.08647,0.08992 -0.141804,0.228269 -0.05534,0.134886 -0.08301,0.27669 -0.02421,0.141803 -0.02421,0.242103 0,0.134886 0.06226,0.217893 0.06571,0.07955 0.172931,0.07955 z"
         style="font-family:'Noto Sans';-inkscape-font-specification:'Noto Sans Bold Italic';fill:#cccccc;fill-opacity:1"
         id="path328465" /><path
         d="m 39.445141,58.365181 0.4012,-1.888407 h 0.387365 l -0.03459,0.349321 h 0.01729 q 0.114134,-0.179848 0.259396,-0.280148 0.145262,-0.103759 0.328569,-0.103759 0.0415,0 0.08647,0.0069 0.04842,0.0035 0.07609,0.01038 l -0.110675,0.491124 q -0.02767,-0.01038 -0.07263,-0.01729 -0.04496,-0.01038 -0.09684,-0.01038 -0.190224,0 -0.342403,0.15218 -0.148721,0.14872 -0.210976,0.446162 l -0.179848,0.843903 z"
         style="font-family:'Noto Sans';-inkscape-font-specification:'Noto Sans Bold Italic';fill:#cccccc;fill-opacity:1"
         id="path328467" /><path
         d="m 41.454594,58.399767 q -0.138345,0 -0.259396,-0.06571 -0.121052,-0.06917 -0.197142,-0.217893 -0.07609,-0.152179 -0.07609,-0.4012 0,-0.231727 0.06226,-0.456537 0.06226,-0.224811 0.176389,-0.408118 0.114135,-0.186765 0.273231,-0.297441 0.162556,-0.110676 0.363155,-0.110676 0.179849,0 0.290525,0.07609 0.114134,0.07609 0.176389,0.2006 h 0.01384 l 0.09684,-0.242104 h 0.390824 l -0.4012,1.888407 h -0.380448 l 0.02421,-0.245562 h -0.01383 q -0.1003,0.12451 -0.231728,0.204059 -0.127969,0.07609 -0.307817,0.07609 z m 0.2006,-0.411576 q 0.103759,0 0.193683,-0.08301 0.08992,-0.08301 0.152179,-0.210975 0.06571,-0.131428 0.09338,-0.280149 0.02421,-0.12451 0.02421,-0.283606 0,-0.121052 -0.06226,-0.197142 -0.06226,-0.07955 -0.172931,-0.07955 -0.09338,0 -0.17639,0.07609 -0.07955,0.07263 -0.141803,0.193682 -0.0588,0.121052 -0.09338,0.269773 -0.03459,0.14872 -0.03459,0.297441 0,0.297441 0.217893,0.297441 z"
         style="font-family:'Noto Sans';-inkscape-font-specification:'Noto Sans Bold Italic';fill:#cccccc;fill-opacity:1"
         id="path328469" /><path
         d="m 42.886463,58.365181 0.4012,-1.888407 h 0.387365 l -0.03459,0.349321 h 0.01729 q 0.114135,-0.179848 0.259397,-0.280148 0.145262,-0.103759 0.328569,-0.103759 0.0415,0 0.08647,0.0069 0.04842,0.0035 0.07609,0.01038 l -0.110676,0.491124 q -0.02767,-0.01038 -0.07263,-0.01729 -0.04496,-0.01038 -0.09684,-0.01038 -0.190225,0 -0.342404,0.15218 -0.148721,0.14872 -0.210976,0.446162 l -0.179848,0.843903 z"
         style="font-family:'Noto Sans';-inkscape-font-specification:'Noto Sans Bold Italic';fill:#cccccc;fill-opacity:1"
         id="path328471" /><path
         d="m 44.290661,59.19525 q -0.08992,0 -0.14872,-0.01038 -0.0588,-0.0069 -0.1003,-0.02075 v -0.404658 q 0.04496,0.0069 0.09338,0.01383 0.04496,0.0069 0.103759,0.0069 0.159096,0 0.262855,-0.09338 0.103759,-0.09338 0.183307,-0.238645 l 0.04496,-0.08301 -0.27669,-1.888407 h 0.498042 l 0.09338,0.875031 q 0.01384,0.117593 0.01729,0.255938 0.0035,0.138345 0.0035,0.238645 h 0.01384 q 0.03459,-0.08647 0.07263,-0.2006 0.0415,-0.117593 0.110675,-0.259397 l 0.439245,-0.909617 h 0.553379 l -1.148261,2.158179 q -0.15218,0.287066 -0.359697,0.421952 -0.204059,0.138345 -0.456538,0.138345 z"
         style="font-family:'Noto Sans';-inkscape-font-specification:'Noto Sans Bold Italic';fill:#cccccc;fill-opacity:1"
         id="path328473" /></g><g
       id="path302909"
       transform="matrix(1.7413286,0.4021209,-0.4021209,1.7413286,23.166047,-6.5278027)"><path
         id="path334662"
         style="color:#000000;-inkscape-font-specification:'Aldhabi Bold Italic';fill:url(#linearGradient345229);fill-opacity:1;stroke-linecap:round;stroke-linejoin:round;paint-order:fill markers stroke"
         d="M 19.451172,4.2890625 C 16.067548,4.4064771 12.947453,6.5476615 11.395635,9.5218601 9.3803463,12.985231 8.1077975,17.117779 8.8085938,21.138672 c 0.4226199,2.460191 1.8606932,4.678135 3.8925782,6.11914 0.639156,0.469931 1.309242,0.898766 2.009766,1.271485 -1.634301,2.340642 -2.284495,5.215695 -2.768523,7.996777 -0.121988,1.304026 -0.708946,2.878411 0.334929,3.96416 0.936493,1.054685 2.717451,0.575704 3.294514,-0.620373 1.759897,-3.644249 4.970529,-6.365348 8.397832,-8.398094 3.188414,-1.85011 6.760541,-3.056916 9.702226,-5.314744 1.924597,-1.818384 2.54219,-4.509846 3.842983,-6.737925 0.4454,-0.826716 1.090295,-1.86544 0.437435,-2.765286 -0.560491,-0.988981 -1.990071,-1.395951 -2.90029,-0.632295 -1.466526,0.829737 -2.93403,1.634614 -4.470013,2.349577 0.625227,-1.132088 -0.03037,-2.415245 0.0031,-3.61755 C 30.367537,12.950202 30.474909,11.076742 29.923224,9.3317973 28.839691,6.7551794 26.112321,5.363458 23.532195,4.7087282 22.206129,4.346839 20.822363,4.2234399 19.451172,4.2890625 Z m 0.86914,3.3535156 c 2.125227,0.111185 4.239418,0.5990482 5.840548,2.0789891 0.966423,0.7842678 0.7639,2.1373708 0.884062,3.2393708 -2.91734,-1.963725 -6.580195,-2.594595 -10.040374,-2.309886 -0.999848,0.129758 -1.990487,0.393934 -2.891267,0.852854 1.041751,-2.0014903 2.956295,-3.732398 5.306797,-3.8291042 0.299587,-0.027828 0.599608,-0.03088 0.900234,-0.032224 z M 18.3125,13.935547 c 2.468405,0.07193 5.138898,0.448467 7.113997,2.054851 1.017003,0.698734 1.139845,2.007603 1.893815,2.900227 0.128003,0.335086 1.144216,0.472986 0.486329,0.623047 -2.163046,0.801661 -4.50117,0.962007 -6.669922,0.261719 -2.223801,-0.617599 -4.546924,-1.725842 -5.81131,-3.778887 -0.23567,-0.435534 -0.523393,-1.16284 0.131557,-1.365763 0.855942,-0.53632 1.894176,-0.683635 2.855534,-0.695194 z m -6.048828,3.449219 c 1.498928,2.974015 4.66758,4.627806 7.720822,5.586305 2.909008,0.898317 6.095337,0.818881 8.94161,-0.274518 1.438291,-0.493965 2.807264,-1.165494 4.150068,-1.874287 -0.593844,1.352524 -1.233304,2.865484 -2.677734,3.503906 -2.025551,1.208938 -4.199207,2.226016 -6.302735,3.232422 -2.914016,1.486927 -5.673317,3.384329 -7.958984,5.751953 0.500695,-1.666961 1.399807,-3.178258 2.447265,-4.550781 0.547386,-1.222498 -0.476351,-2.557916 -1.678635,-2.822282 -2.191651,-1.036459 -4.353376,-2.812232 -4.764724,-5.333968 -0.224028,-1.114492 -0.20436,-2.370949 -0.01172,-3.529297 0.04492,0.103515 0.08984,0.207031 0.134766,0.310547 z" /><path
         style="color:#000000;-inkscape-font-specification:'Aldhabi Bold Italic';fill:url(#linearGradient331468);fill-opacity:1;stroke-width:1.7306;stroke-linecap:round;stroke-linejoin:round;paint-order:fill markers stroke"
         d="m 36.56349,17.5955 q -0.786792,1.416226 -1.337546,2.635753 -0.550755,1.219528 -1.101509,2.321037 -0.354057,0.747452 -0.668773,1.258867 -0.314717,0.472075 -0.629434,0.826131 -0.275377,0.314717 -0.629433,0.550755 -0.354057,0.236037 -0.747453,0.472075 -1.416225,0.865471 -3.068489,1.691603 -1.652263,0.826131 -3.383205,1.652263 -1.96698,0.94415 -3.697922,2.163678 -1.730943,1.180188 -3.107828,2.478394 -1.376886,1.298207 -2.399716,2.635753 -1.02283,1.337547 -1.573584,2.557074 -0.07868,0.196698 -0.196698,0.354057 -0.118019,0.196698 -0.354056,0.196698 -0.236038,0 -0.275377,-0.236038 -0.03934,-0.236038 -0.03934,-0.472075 0,-0.157358 0.07868,-0.786792 0.118019,-0.629434 0.236038,-1.455565 0.157358,-0.826132 0.314717,-1.691603 0.196698,-0.826131 0.393396,-1.416225 0.354056,-1.298207 0.94415,-2.557074 0.590094,-1.298207 1.730942,-2.714433 l -0.07868,-0.236037 q -3.147168,-1.337547 -4.91745,-3.461885 -1.770282,-2.163678 -1.770282,-5.586223 0,-1.376886 0.432736,-3.225847 0.432735,-1.888301 1.612923,-4.248676 1.298207,-2.6750925 3.225847,-4.012639 1.927641,-1.3375464 4.642073,-1.3375464 1.534244,0 2.95047,0.393396 1.455565,0.3540564 2.557074,0.98349 1.140848,0.590094 1.888301,1.4162259 0.747452,0.826131 0.90481,1.6916015 0.118019,0.668774 0.157359,1.376886 0.07868,0.708113 0.118018,1.534245 0.07868,0.826131 0.157359,1.770282 0.03934,0.94415 0.236037,2.084998 0,0.236038 -0.07868,0.432736 -0.07868,0.196698 -0.314717,0.196698 -0.236037,0 -0.354056,-0.236038 -0.118019,-0.236037 -0.196698,-0.472075 -0.432735,-1.258867 -1.416225,-2.163678 -0.98349,-0.94415 -2.360376,-1.534244 -1.337547,-0.590094 -2.911131,-0.865471 -1.573584,-0.314717 -3.147167,-0.314717 -0.98349,0 -1.888301,0.196698 -0.904811,0.196698 -1.612924,0.550754 -0.708112,0.354057 -1.140848,0.826132 -0.393396,0.472075 -0.393396,1.022829 0,1.534245 1.062169,2.832451 1.062169,1.298207 2.675093,2.242358 1.652263,0.94415 3.540564,1.494904 1.92764,0.511415 3.658582,0.511415 1.888301,0 4.760092,-1.062169 2.91113,-1.101509 7.199146,-3.579904 z"
         id="path310737" /><path
         style="color:#000000;-inkscape-font-specification:'Aldhabi Bold Italic';fill:url(#linearGradient336191);fill-opacity:1;stroke-linecap:round;stroke-linejoin:round;paint-order:fill markers stroke"
         d="m 20.198336,5.0861256 c -1.951746,0 -3.693379,0.4920419 -5.134766,1.4921875 -1.432325,0.9938589 -2.597534,2.4619294 -3.511718,4.3457029 -0.806275,1.614081 -1.369206,3.085332 -1.6777348,4.43164 -0.298695,1.27729 -0.455078,2.41248 -0.455078,3.419922 0,2.430884 0.6450138,4.519253 1.9667968,6.134766 a 0.86538552,0.86538552 0 0 0 0.0039,0.0059 c 1.130748,1.356897 2.693629,2.430178 4.535156,3.314453 -0.53344,0.735706 -1.067395,1.468478 -1.392578,2.183594 -2.06e-4,4.55e-4 2.07e-4,0.0015 0,0.002 -0.410428,0.876965 -0.739965,1.770962 -0.988281,2.679688 -6.96e-4,0.0025 -0.0013,0.0053 -0.002,0.0078 -0.137271,0.41695 -0.269233,0.892498 -0.400391,1.44336 a 0.86538552,0.86538552 0 0 0 -0.0098,0.04492 c -0.104493,0.574711 -0.21002,1.137273 -0.314453,1.685547 a 0.86538552,0.86538552 0 0 0 -0.0059,0.03906 c -0.07732,0.541236 -0.154798,1.014393 -0.230468,1.417969 a 0.86538552,0.86538552 0 0 0 -0.0078,0.05273 c -0.05355,0.428429 -0.08594,0.645408 -0.08594,0.894531 -10e-7,0.205431 0.01686,0.409786 0.05078,0.613281 0.03618,0.217089 0.147508,0.495019 0.378906,0.69336 0.231398,0.198341 0.527104,0.265625 0.75,0.265625 0.392742,0 0.870149,-0.264485 1.083984,-0.607422 0.106639,-0.152652 0.202586,-0.314082 0.271485,-0.486328 l -0.01563,0.03516 c 0.333309,-0.738041 0.82233,-1.538246 1.472656,-2.388672 0.650134,-0.850175 1.418827,-1.694168 2.306641,-2.53125 0.881464,-0.831095 1.879819,-1.628819 3,-2.392578 a 0.86538552,0.86538552 0 0 0 0.01172,-0.0078 c 1.113035,-0.784184 2.303628,-1.480737 3.572266,-2.089844 l 0.002,-0.002 c 1.157723,-0.552568 2.290827,-1.105375 3.396484,-1.658203 1.118429,-0.559215 2.159609,-1.133 3.125,-1.722657 l 0.0078,-0.0039 c 0.270379,-0.16238 0.529377,-0.326226 0.775391,-0.490234 0.297573,-0.198383 0.566772,-0.433733 0.800781,-0.701172 0.239958,-0.270495 0.470379,-0.575686 0.697265,-0.916016 a 0.86538552,0.86538552 0 0 0 0.01758,-0.02734 c 0.229442,-0.372845 0.462781,-0.814064 0.705078,-1.324218 l 0.0098,-0.01758 c 0.369814,-0.740239 0.738807,-1.517765 1.107422,-2.333985 0.355267,-0.786662 0.789741,-1.645361 1.304688,-2.572265 a 0.86538552,0.86538552 0 0 0 -0.144532,-1.03125 l -0.314453,-0.316407 a 0.86538552,0.86538552 0 0 0 -1.044922,-0.136718 c -2.831114,1.636332 -5.195716,2.809319 -7.066406,3.517578 -0.0015,5.72e-4 -0.0024,-5.72e-4 -0.0039,0 -6.2e-4,2.35e-4 -0.0013,0.0017 -0.002,0.002 -1.853216,0.684803 -3.357977,1.005859 -4.453125,1.005859 -1.065085,0 -2.207456,-0.158233 -3.425781,-0.480469 -1.189614,-0.34781 -2.299936,-0.81504 -3.335938,-1.40625 l -0.002,-0.002 c -0.996339,-0.583581 -1.804673,-1.262786 -2.441406,-2.041015 -0.602322,-0.736171 -0.867188,-1.462012 -0.867188,-2.285157 0,-0.155844 0.04386,-0.275891 0.1875,-0.453124 0.201686,-0.215313 0.481231,-0.429092 0.869141,-0.623047 0.397547,-0.198774 0.866473,-0.360324 1.410156,-0.478516 0.539613,-0.117307 1.105152,-0.175781 1.703125,-0.175781 0.991368,0 1.983851,0.09794 2.978516,0.296875 a 0.86538552,0.86538552 0 0 0 0.01953,0.0039 c 0.986684,0.17267 1.888414,0.44181 2.710937,0.804688 a 0.86538552,0.86538552 0 0 0 0.0098,0.0039 c 0.832905,0.356959 1.526464,0.811186 2.101563,1.363281 a 0.86538552,0.86538552 0 0 0 0.01367,0.01172 c 0.555045,0.510641 0.939898,1.099659 1.183594,1.808593 0.06569,0.195833 0.145561,0.388779 0.240235,0.578125 0.181871,0.363744 0.683114,0.714844 1.128906,0.714844 0.397719,0 0.953919,-0.33402 1.117187,-0.742187 0.09678,-0.241948 0.140625,-0.500403 0.140625,-0.753907 a 0.86538552,0.86538552 0 0 0 -0.01172,-0.146484 C 29.89451,16.324212 29.820215,15.664283 29.795882,15.0803 a 0.86538552,0.86538552 0 0 0 -0.002,-0.03516 c -0.05254,-0.632438 -0.105224,-1.226655 -0.158046,-1.78128 l 0.002,0.04101 c -0.02617,-0.549669 -0.06483,-1.060454 -0.117187,-1.541015 -1.51e-4,-0.0027 -0.0018,-0.0051 -0.002,-0.0078 -0.0282,-0.502028 -0.08352,-0.992168 -0.167968,-1.470703 a 0.86538552,0.86538552 0 0 0 0,-0.0039 C 29.211308,9.5148925 28.814337,8.8040775 28.235445,8.1642506 27.662594,7.531099 26.947948,7.0007379 26.116305,6.5685475 25.307148,6.1086362 24.386787,5.7580726 23.362398,5.5080006 22.345782,5.2272974 21.289079,5.0861256 20.198336,5.0861256 Z m 0,1.7304688 c 0.948871,0 1.85224,0.1206309 2.71875,0.3613281 a 0.86538552,0.86538552 0 0 0 0.02734,0.00781 c 0.904659,0.2200523 1.679564,0.5197397 2.332031,0.8925781 a 0.86538552,0.86538552 0 0 0 0.03125,0.017578 c 0.682698,0.3531197 1.224407,0.7641679 1.644531,1.2285149 0.417711,0.46168 0.624874,0.8782105 0.695313,1.2656245 0.07209,0.409425 0.1202,0.833525 0.144531,1.271485 a 0.86538552,0.86538552 0 0 0 0.0039,0.04687 c 0.05012,0.451098 0.0878,0.945359 0.113281,1.480469 a 0.86538552,0.86538552 0 0 0 0.0039,0.03906 c 0.05208,0.546882 0.104045,1.135259 0.15625,1.761719 l -0.002,-0.03711 c 0.0031,0.07439 0.0229,0.16644 0.02734,0.242188 -0.246311,-0.347379 -0.376494,-0.770213 -0.695312,-1.064453 -0.734816,-0.70371 -1.611514,-1.270727 -2.611328,-1.699219 -0.955939,-0.420995 -1.988915,-0.727764 -3.09375,-0.921875 -1.099546,-0.219126 -2.203834,-0.330078 -3.306641,-0.330078 -0.713346,0 -1.405465,0.07184 -2.072266,0.216797 -0.66273,0.144072 -1.26785,0.349746 -1.814453,0.623047 -0.546602,0.273301 -1.018037,0.607035 -1.392578,1.015625 a 0.86538552,0.86538552 0 0 0 -0.02734,0.03125 c -0.368211,0.441852 -0.59375,1.002979 -0.59375,1.576171 0,1.222514 0.44391,2.386091 1.257812,3.38086 0.77894,0.952038 1.755168,1.766458 2.908203,2.441406 a 0.86538552,0.86538552 0 0 0 0.0078,0.0039 c 1.161867,0.663925 2.405228,1.18883 3.726562,1.574219 a 0.86538552,0.86538552 0 0 0 0.02148,0.0059 c 1.347142,0.357406 2.641681,0.539063 3.88086,0.539063 1.421109,0 3.088148,-0.385717 5.060547,-1.115234 a 0.86538552,0.86538552 0 0 0 0.0059,-0.002 c 1.530027,-0.578929 3.544083,-1.667803 5.576172,-2.771484 -0.157438,0.319438 -0.358946,0.672877 -0.496094,0.976563 -0.36286,0.803475 -0.724296,1.567733 -1.085937,2.291015 a 0.86538552,0.86538552 0 0 0 -0.0078,0.01563 c -0.223586,0.472014 -0.431753,0.859557 -0.617187,1.16211 -0.187691,0.280237 -0.372033,0.522052 -0.546875,0.71875 a 0.86538552,0.86538552 0 0 0 -0.0039,0.0039 c -0.133159,0.152183 -0.284483,0.286009 -0.458984,0.402344 -0.223731,0.149153 -0.459585,0.298406 -0.710937,0.449218 a 0.86538552,0.86538552 0 0 0 -0.0078,0.0039 c -0.92092,0.562784 -1.922054,1.115323 -3.003906,1.65625 -1.096594,0.548296 -2.21978,1.095972 -3.369141,1.644531 a 0.86538552,0.86538552 0 0 0 0,0.002 c -1.353079,0.649478 -2.628098,1.394983 -3.822265,2.236328 -1.183424,0.807628 -2.251649,1.657581 -3.203125,2.554688 -0.948033,0.893859 -1.780503,1.807016 -2.494141,2.740234 -0.260623,0.340815 -0.391867,0.662109 -0.611328,0.996094 0.0081,-0.05482 0.01732,-0.09429 0.02539,-0.150391 0.102597,-0.538637 0.204099,-1.090998 0.30664,-1.654297 0.126831,-0.53269 0.250907,-0.981237 0.371094,-1.341797 a 0.86538552,0.86538552 0 0 0 0.01367,-0.04687 c 0.22261,-0.816238 0.519471,-1.622008 0.892578,-2.417968 a 0.86538552,0.86538552 0 0 0 0.0059,-0.0078 c 0.355519,-0.78214 0.891931,-1.630931 1.617188,-2.53125 a 0.86538552,0.86538552 0 0 0 0.146484,-0.816406 l -0.07813,-0.234375 A 0.86538552,0.86538552 0 0 0 17.311643,27.027567 C 15.312597,26.177972 13.797618,25.100978 12.7218,23.81077 c -5.64e-4,-6.75e-4 -0.0014,-0.0013 -0.002,-0.002 -1.035716,-1.268633 -1.570312,-2.903699 -1.570312,-5.033203 0,-0.827272 0.132527,-1.843063 0.410156,-3.029297 a 0.86538552,0.86538552 0 0 0 0.002,-0.0039 c 0.267766,-1.168436 0.778536,-2.525823 1.542969,-4.054687 a 0.86538552,0.86538552 0 0 0 0.0039,-0.0078 C 13.925249,9.9968625 14.91204,8.7897225 16.049898,8.0001881 17.178697,7.2169404 18.530843,6.8165944 20.198336,6.8165944 Z"
         id="path310739" /></g></g></svg>
