<?xml version="1.0" encoding="UTF-8" standalone="no"?>
<!-- Created with Inkscape (http://www.inkscape.org/) -->

<svg
   width="512"
   height="512"
   viewBox="0 0 135.46666 135.46667"
   version="1.1"
   id="svg1383"
   inkscape:version="1.2 (dc2aedaf03, 2022-05-15)"
   sodipodi:docname="hamza.svg"
   xml:space="preserve"
   xmlns:inkscape="http://www.inkscape.org/namespaces/inkscape"
   xmlns:sodipodi="http://sodipodi.sourceforge.net/DTD/sodipodi-0.dtd"
   xmlns:xlink="http://www.w3.org/1999/xlink"
   xmlns="http://www.w3.org/2000/svg"
   xmlns:svg="http://www.w3.org/2000/svg"><sodipodi:namedview
     id="namedview1385"
     pagecolor="#ffffff"
     bordercolor="#cccccc"
     borderopacity="1"
     inkscape:showpageshadow="0"
     inkscape:pageopacity="1"
     inkscape:pagecheckerboard="0"
     inkscape:deskcolor="#d1d1d1"
     inkscape:document-units="px"
     showgrid="false"
     inkscape:zoom="1.0255231"
     inkscape:cx="243.77803"
     inkscape:cy="333.9759"
     inkscape:window-width="1920"
     inkscape:window-height="1001"
     inkscape:window-x="-9"
     inkscape:window-y="-9"
     inkscape:window-maximized="1"
     inkscape:current-layer="text469" /><defs
     id="defs1380"><linearGradient
       inkscape:collect="always"
       id="linearGradient81095"><stop
         style="stop-color:#b73737;stop-opacity:1;"
         offset="0.2"
         id="stop81091" /><stop
         style="stop-color:#f9ebe5;stop-opacity:1;"
         offset="0.79764247"
         id="stop81093" /></linearGradient><inkscape:path-effect
       effect="mirror_symmetry"
       start_point="11.105469,68.694334"
       end_point="124.36133,125.39648"
       center_point="124.36133,68.694334"
       id="path-effect43081"
       is_visible="true"
       lpeversion="1.2"
       lpesatellites=""
       mode="Y"
       discard_orig_path="false"
       fuse_paths="true"
       oposite_fuse="false"
       split_items="false"
       split_open="false"
       link_styles="false" /><inkscape:path-effect
       effect="mirror_symmetry"
       start_point="12.199219,68.69238"
       end_point="124.78125,125.39648"
       center_point="124.78125,68.69238"
       id="path-effect42977"
       is_visible="true"
       lpeversion="1.2"
       lpesatellites=""
       mode="vertical"
       discard_orig_path="false"
       fuse_paths="true"
       oposite_fuse="false"
       split_items="false"
       split_open="false"
       link_styles="false" /><inkscape:path-effect
       effect="mirror_symmetry"
       start_point="68.490409,125.39665"
       end_point="124.78155,125.39665"
       center_point="124.78155,68.69229"
       id="path-effect42925"
       is_visible="true"
       lpeversion="1.2"
       lpesatellites=""
       mode="free"
       discard_orig_path="false"
       fuse_paths="true"
       oposite_fuse="false"
       split_items="false"
       split_open="false"
       link_styles="false" /><linearGradient
       inkscape:collect="always"
       id="linearGradient22775"><stop
         style="stop-color:#3d1e1e;stop-opacity:1;"
         offset="0"
         id="stop22771" /><stop
         style="stop-color:#fc4f51;stop-opacity:1;"
         offset="0.49672118"
         id="stop22773" /><stop
         style="stop-color:#ffbdbe;stop-opacity:1;"
         offset="1"
         id="stop80268" /></linearGradient><linearGradient
       inkscape:collect="always"
       id="linearGradient821"><stop
         style="stop-color:#ffffff;stop-opacity:1;"
         offset="0"
         id="stop817" /><stop
         style="stop-color:#f2e7cc;stop-opacity:1;"
         offset="1"
         id="stop819" /></linearGradient><linearGradient
       inkscape:collect="always"
       id="linearGradient1085"><stop
         style="stop-color:#3bd100;stop-opacity:1;"
         offset="0"
         id="stop1081" /><stop
         style="stop-color:#000000;stop-opacity:1;"
         offset="1"
         id="stop1083" /></linearGradient><inkscape:path-effect
       effect="mirror_symmetry"
       start_point="0,67.733332"
       end_point="135.46666,67.733332"
       center_point="67.733332,67.733332"
       id="path-effect29630"
       is_visible="true"
       lpeversion="1.2"
       lpesatellites=""
       mode="horizontal"
       discard_orig_path="false"
       fuse_paths="true"
       oposite_fuse="false"
       split_items="false"
       split_open="false"
       link_styles="false" /><linearGradient
       inkscape:collect="always"
       xlink:href="#linearGradient1085"
       id="linearGradient1087"
       x1="28.986177"
       y1="108.98969"
       x2="104.38665"
       y2="108.98969"
       gradientUnits="userSpaceOnUse"
       gradientTransform="matrix(1.2028708,0,0,1.2028708,-16.259845,-20.448382)" /><linearGradient
       inkscape:collect="always"
       xlink:href="#linearGradient821"
       id="linearGradient823"
       x1="106.04379"
       y1="139.95422"
       x2="103.8736"
       y2="1.4320322"
       gradientUnits="userSpaceOnUse"
       gradientTransform="matrix(0.83217896,0,0,0.83217896,12.138233,11.742713)" /><filter
       style="color-interpolation-filters:sRGB;"
       inkscape:label="Drop Shadow"
       id="filter6583"
       x="-0.34753968"
       y="-0.23605001"
       width="1.6219549"
       height="1.4517085"><feFlood
         flood-opacity="0.643137"
         flood-color="rgb(0,0,0)"
         result="flood"
         id="feFlood6573" /><feComposite
         in="flood"
         in2="SourceGraphic"
         operator="in"
         result="composite1"
         id="feComposite6575" /><feGaussianBlur
         in="composite1"
         stdDeviation="6.98413"
         result="blur"
         id="feGaussianBlur6577" /><feOffset
         dx="-4.88959"
         dy="-1.73502"
         result="offset"
         id="feOffset6579" /><feComposite
         in="SourceGraphic"
         in2="offset"
         operator="over"
         result="composite2"
         id="feComposite6581" /></filter><linearGradient
       inkscape:collect="always"
       xlink:href="#linearGradient22775"
       id="linearGradient22777"
       x1="33.892883"
       y1="91.690849"
       x2="93.632286"
       y2="65.197449"
       gradientUnits="userSpaceOnUse"
       gradientTransform="matrix(0.83217896,0,0,0.83217896,11.099092,16.76523)" /><linearGradient
       inkscape:collect="always"
       xlink:href="#linearGradient81095"
       id="linearGradient81097"
       x1="39.304035"
       y1="93.068428"
       x2="93.602493"
       y2="89.748817"
       gradientUnits="userSpaceOnUse" /><filter
       style="color-interpolation-filters:sRGB;"
       inkscape:label="Drop Shadow"
       id="filter89828"
       x="-0.078509556"
       y="-0.061699271"
       width="1.1887853"
       height="1.143447"><feFlood
         flood-opacity="0.37977805178791613"
         flood-color="rgb(0,0,0)"
         result="flood"
         id="feFlood89818" /><feComposite
         in="flood"
         in2="SourceGraphic"
         operator="in"
         result="composite1"
         id="feComposite89820" /><feGaussianBlur
         in="composite1"
         stdDeviation="1.26984"
         result="blur"
         id="feGaussianBlur89822" /><feOffset
         dx="1.7676767676767753"
         dy="1.41956"
         result="offset"
         id="feOffset89824" /><feComposite
         in="SourceGraphic"
         in2="offset"
         operator="over"
         result="composite2"
         id="feComposite89826" /></filter></defs><g
     inkscape:label="Layer 1"
     inkscape:groupmode="layer"
     id="layer1"><path
       id="rect22420"
       class="UnoptimicedTransforms"
       d="M 67.732422,6.9765625 C 51.049073,9.5523125 27.054865,10.79759 7.2480469,7.40625 10.778517,23.220953 11.860234,49.060693 7.4785156,68.693359 11.860234,88.326026 10.778517,114.16772 7.2480469,129.98242 c 19.8068181,-3.39134 43.8010261,-2.14606 60.4843751,0.42969 16.683349,-2.57575 40.679508,-3.82103 60.486328,-0.42969 -3.53047,-15.8147 -4.61219,-41.656394 -0.23047,-61.289061 -4.38172,-19.632666 -3.3,-45.472406 0.23047,-61.287109 -19.80682,3.39134 -43.802979,2.1460625 -60.486328,-0.4296875 z"
       style="fill:url(#linearGradient823);fill-opacity:1;stroke:#979797;stroke-width:1.79996;stroke-linecap:round;stroke-linejoin:miter;stroke-dasharray:none;stroke-opacity:1;stop-color:#000000"
       inkscape:path-effect="#path-effect42977;#path-effect43081"
       inkscape:original-d="m 8.5246399,12.353146 0.375547,27.995475 -1.5381124,27.82556 c 4.5184975,19.694361 3.4473285,45.854179 -0.1144311,61.809039 20.1083686,-3.44297 44.5340226,-2.10804 61.2426206,0.5473 l 56.291016,-2.55406 V 11.988281 H 68.490234 Z"
       sodipodi:nodetypes="ccccccccc"
       transform="translate(-6.5000015e-5,-0.9610022)" /><text
       xml:space="preserve"
       style="font-style:normal;font-variant:normal;font-weight:bold;font-stretch:normal;font-size:141.91px;font-family:'Noto Sans Arabic';-inkscape-font-specification:'Noto Sans Arabic Bold';fill:#000000;fill-opacity:1;stroke:none;stroke-width:4;stroke-linecap:round;stroke-linejoin:round;stroke-dasharray:none;stroke-opacity:1;stop-color:#000000"
       x="67.853584"
       y="46.439716"
       id="text13030"><tspan
         sodipodi:role="line"
         id="tspan13028"
         style="stroke-width:4"
         x="67.853584"
         y="46.439716" /></text><g
       aria-label="Hamza"
       id="text15942"
       style="font-style:italic;font-size:21.3509px;font-family:Alef;-inkscape-font-specification:'Alef Italic';fill:#b73737;stroke-width:0.670983;stroke-linecap:round;stroke-linejoin:round;paint-order:markers stroke fill;stop-color:#000000"><path
         d="m 45.765673,110.50238 h -3.223986 v -6.57608 h -6.042305 v 6.57608 H 33.275396 V 95.257837 h 3.223986 v 5.978253 h 6.042305 v -5.978253 h 3.223986 z"
         style="font-style:normal;font-weight:bold;font-family:'Noto Sans';-inkscape-font-specification:'Noto Sans Bold'"
         id="path142192" /><path
         d="m 54.135213,98.609929 q 2.348599,0 3.586951,1.024843 1.259703,1.003488 1.259703,3.095878 v 7.77173 h -2.220494 l -0.619176,-1.57997 h -0.0854 q -0.747282,0.93944 -1.579967,1.36646 -0.832685,0.42702 -2.284546,0.42702 -1.558616,0 -2.583459,-0.89674 -1.024844,-0.89674 -1.024844,-2.79697 0,-1.85752 1.302405,-2.73291 1.302405,-0.87539 3.907215,-0.98214 l 2.028336,-0.0641 v -0.51242 q 0,-0.91809 -0.491071,-1.3451 -0.46972,-0.42702 -1.323756,-0.42702 -0.854036,0 -1.66537,0.25621 -0.811334,0.23486 -1.622669,0.59782 l -1.046194,-2.156437 q 0.918089,-0.46972 2.071038,-0.747282 1.152948,-0.298912 2.391301,-0.298912 z m 1.686721,6.490671 -1.238352,0.0427 q -1.537265,0.0427 -2.135091,0.55513 -0.597825,0.51242 -0.597825,1.3451 0,0.72594 0.427018,1.0462 0.427018,0.29891 1.110247,0.29891 1.024843,0 1.729423,-0.59782 0.70458,-0.61918 0.70458,-1.72943 z"
         style="font-style:normal;font-weight:bold;font-family:'Noto Sans';-inkscape-font-specification:'Noto Sans Bold'"
         id="path142194" /><path
         d="m 75.934483,98.63128 q 1.985634,0 2.989126,1.024843 1.024843,1.003497 1.024843,3.245337 v 7.60092 h -3.181284 v -6.81094 q 0,-2.5194 -1.750774,-2.5194 -1.259703,0 -1.793476,0.89673 -0.533772,0.89674 -0.533772,2.58346 v 5.85015 h -3.181284 v -6.81094 q 0,-2.5194 -1.750774,-2.5194 -1.323756,0 -1.836178,1.00349 -0.49107,0.98214 -0.49107,2.83967 v 5.48718 H 62.248555 V 98.844789 h 2.434003 l 0.427018,1.494561 h 0.170807 q 0.533773,-0.896736 1.451862,-1.302403 0.939439,-0.405667 1.942932,-0.405667 1.281054,0 2.156441,0.427018 0.896737,0.405667 1.387808,1.281052 h 0.277562 Q 73.03076,99.442614 73.9702,99.036947 74.93099,98.63128 75.934483,98.63128 Z"
         style="font-style:normal;font-weight:bold;font-family:'Noto Sans';-inkscape-font-specification:'Noto Sans Bold'"
         id="path142196" /><path
         d="m 91.328492,110.50238 h -9.202238 v -1.87888 l 5.401778,-7.34471 h -5.081514 v -2.434001 h 8.689816 v 2.071041 l -5.252321,7.15255 h 5.444479 z"
         style="font-style:normal;font-weight:bold;font-family:'Noto Sans';-inkscape-font-specification:'Noto Sans Bold'"
         id="path142198" /><path
         d="m 98.41701,98.609929 q 2.3486,0 3.58695,1.024843 1.2597,1.003488 1.2597,3.095878 v 7.77173 h -2.22049 l -0.61918,-1.57997 h -0.0854 q -0.74728,0.93944 -1.579966,1.36646 -0.832685,0.42702 -2.284546,0.42702 -1.558616,0 -2.583459,-0.89674 -1.024843,-0.89674 -1.024843,-2.79697 0,-1.85752 1.302405,-2.73291 1.302405,-0.87539 3.907215,-0.98214 l 2.028334,-0.0641 v -0.51242 q 0,-0.91809 -0.49107,-1.3451 -0.469719,-0.42702 -1.323755,-0.42702 -0.854036,0 -1.665371,0.25621 -0.811334,0.23486 -1.622668,0.59782 l -1.046194,-2.156437 q 0.918088,-0.46972 2.071037,-0.747282 1.152949,-0.298912 2.391301,-0.298912 z m 1.68672,6.490671 -1.238351,0.0427 q -1.537265,0.0427 -2.13509,0.55513 -0.597825,0.51242 -0.597825,1.3451 0,0.72594 0.427018,1.0462 0.427018,0.29891 1.110246,0.29891 1.024844,0 1.729423,-0.59782 0.704579,-0.61918 0.704579,-1.72943 z"
         style="font-style:normal;font-weight:bold;font-family:'Noto Sans';-inkscape-font-specification:'Noto Sans Bold'"
         id="path142200" /></g><g
       aria-label="ุก"
       id="text469"
       style="font-style:italic;font-size:410.012px;font-family:arabswell_1;-inkscape-font-specification:'arabswell_1 Italic';stroke-width:44.235;stroke-linecap:round;stroke-linejoin:round;stop-color:#000000;paint-order:fill markers stroke"
       transform="translate(4.7127917,-35.367185)"><path
         d="m 93.055433,78.48691 q -1.666031,2.998858 -2.832254,5.581207 -1.166223,2.58235 -2.332445,4.914795 -0.749714,1.582731 -1.416127,2.665651 -0.666412,0.999619 -1.332825,1.749334 -0.583112,0.666412 -1.332826,1.166222 -0.749715,0.499809 -1.582731,0.999619 -2.998857,1.832636 -6.497524,3.581969 -3.498668,1.749343 -7.163938,3.498673 -4.16508,1.99923 -7.83035,4.58158 -3.665271,2.49905 -6.580826,5.24801 -2.915557,2.74895 -5.081398,5.58121 -2.165842,2.83225 -3.332064,5.41459 -0.166604,0.41652 -0.416508,0.74972 -0.249905,0.41651 -0.749715,0.41651 -0.499809,0 -0.583111,-0.49981 -0.0833,-0.49981 -0.0833,-0.99962 0,-0.33321 0.166603,-1.66603 0.249905,-1.33283 0.499809,-3.08216 0.333207,-1.74933 0.666413,-3.58197 0.416508,-1.74934 0.833016,-2.99886 0.749715,-2.74895 1.999239,-5.41461 1.249524,-2.74894 3.66527,-5.74781 l -0.166605,-0.4998 q -6.664127,-2.832258 -10.412699,-7.330545 -3.748572,-4.581588 -3.748572,-11.828826 0,-2.915557 0.916318,-6.830731 0.916317,-3.998477 3.415365,-8.996574 2.748953,-5.664508 6.830731,-8.496763 4.081779,-2.832254 9.829589,-2.832254 3.248762,0 6.24762,0.833016 3.082159,0.749714 5.414604,2.082539 2.415746,1.249525 3.998477,2.998858 1.58273,1.749334 1.915937,3.58197 0.249904,1.416127 0.333206,2.915555 0.166603,1.499429 0.249905,3.248763 0.166603,1.749333 0.333206,3.748571 0.0833,1.999239 0.49981,4.414985 0,0.49981 -0.166604,0.916318 -0.166603,0.416508 -0.666412,0.416508 -0.49981,0 -0.749714,-0.49981 -0.249905,-0.49981 -0.416508,-0.999619 -0.916318,-2.665651 -2.998858,-4.581588 -2.08254,-1.999238 -4.998097,-3.248762 -2.832253,-1.249524 -6.164318,-1.832636 -3.332063,-0.666412 -6.664127,-0.666412 -2.08254,0 -3.998478,0.416507 -1.915936,0.416509 -3.415365,1.166224 -1.499429,0.749714 -2.415746,1.749333 -0.833016,0.999619 -0.833016,2.165841 0,3.248763 2.249142,5.997715 2.249144,2.748953 5.664509,4.748191 3.498668,1.999239 7.497145,3.165462 4.081778,1.08292 7.747048,1.08292 3.998477,0 10.079494,-2.249143 6.164318,-2.332445 15.244193,-7.580446 z"
         style="font-family:Aldhabi;-inkscape-font-specification:'Aldhabi Italic';fill:url(#linearGradient22777);fill-opacity:1;stroke:url(#linearGradient81097);stroke-width:2.64217;stroke-dasharray:none;stroke-opacity:1;filter:url(#filter89828);paint-order:fill markers stroke"
         id="path726" /></g><g
       aria-label="Typography Engine &amp; Renderer"
       id="text36165"
       style="font-size:4.96875px;font-family:'Noto Sans';-inkscape-font-specification:'Noto Sans';fill:#b73737;stroke-width:15.6738;stroke-linecap:round;stroke-linejoin:round;stop-color:#000000"><path
         d="m 33.532154,116.3622 h -0.447187 v -3.15516 h -1.108031 v -0.39253 h 2.658281 v 0.39253 h -1.103063 z"
         style="fill:#000000"
         id="path142203" /><path
         d="m 34.595463,113.69895 h 0.467063 l 0.576375,1.51547 q 0.07453,0.20372 0.134156,0.38259 0.05962,0.17888 0.08944,0.34284 h 0.01987 q 0.02981,-0.12421 0.09441,-0.32296 0.06459,-0.20372 0.134156,-0.40744 l 0.541594,-1.5105 h 0.472031 l -1.147781,3.03094 q -0.144094,0.37762 -0.362719,0.60121 -0.218625,0.2236 -0.606187,0.2236 -0.11925,0 -0.208688,-0.0149 -0.08944,-0.01 -0.154031,-0.0248 v -0.34781 q 0.05466,0.01 0.129187,0.0199 0.0795,0.01 0.163969,0.01 0.228563,0 0.367688,-0.12919 0.139125,-0.12919 0.223593,-0.34284 l 0.139125,-0.35278 z"
         style="fill:#000000"
         id="path142205" /><path
         d="m 38.813933,113.64926 q 0.491907,0 0.790032,0.34284 0.303093,0.34285 0.303093,1.0335 0,0.68072 -0.303093,1.0335 -0.298125,0.35279 -0.795,0.35279 -0.308063,0 -0.511782,-0.11429 -0.19875,-0.11428 -0.313031,-0.27328 h -0.02981 q 0.005,0.0845 0.01491,0.21366 0.01491,0.12919 0.01491,0.22359 v 1.09313 h -0.43725 v -3.85575 h 0.35775 l 0.05963,0.36272 h 0.01987 q 0.11925,-0.17391 0.313031,-0.29316 0.193782,-0.11925 0.51675,-0.11925 z m -0.0795,0.36769 q -0.407437,0 -0.576375,0.22856 -0.168937,0.22856 -0.173906,0.69563 v 0.0845 q 0,0.49191 0.159,0.76022 0.163969,0.26335 0.601219,0.26335 0.2385,0 0.3975,-0.12919 0.159,-0.13416 0.233531,-0.36769 0.0795,-0.23353 0.0795,-0.53165 0,-0.45713 -0.178875,-0.73041 -0.173906,-0.27328 -0.541594,-0.27328 z"
         style="fill:#000000"
         id="path142207" /><path
         d="m 42.918119,115.0256 q 0,0.66085 -0.337875,1.02357 -0.332906,0.36272 -0.904312,0.36272 -0.352782,0 -0.631032,-0.159 -0.273281,-0.16397 -0.432281,-0.47204 -0.159,-0.31303 -0.159,-0.75525 0,-0.66084 0.327938,-1.01859 0.332906,-0.35775 0.909281,-0.35775 0.35775,0 0.636,0.16397 0.27825,0.159 0.432281,0.46706 0.159,0.3031 0.159,0.74531 z m -2.012344,0 q 0,0.47204 0.183844,0.75029 0.188813,0.27328 0.59625,0.27328 0.402469,0 0.591281,-0.27328 0.188813,-0.27825 0.188813,-0.75029 0,-0.47203 -0.188813,-0.74034 -0.188812,-0.26831 -0.59625,-0.26831 -0.407437,0 -0.591281,0.26831 -0.183844,0.26831 -0.183844,0.74034 z"
         style="fill:#000000"
         id="path142209" /><path
         d="m 44.552836,113.64926 q 0.263344,0 0.472031,0.0994 0.213657,0.0994 0.362719,0.30309 h 0.02484 l 0.05962,-0.35278 h 0.347812 v 2.70797 q 0,0.5714 -0.293156,0.85959 -0.288187,0.28819 -0.899344,0.28819 -0.586312,0 -0.958968,-0.16894 v -0.40247 q 0.392531,0.20869 0.983812,0.20869 0.342844,0 0.536625,-0.20372 0.19875,-0.19875 0.19875,-0.54656 v -0.10435 q 0,-0.0596 0.005,-0.16893 0.005,-0.11428 0.0099,-0.159 h -0.01987 q -0.268312,0.40247 -0.824812,0.40247 -0.51675,0 -0.809906,-0.36272 -0.288188,-0.36272 -0.288188,-1.01363 0,-0.636 0.288188,-1.00865 0.293156,-0.37763 0.804937,-0.37763 z m 0.05963,0.36769 q -0.332906,0 -0.51675,0.26831 -0.183844,0.26334 -0.183844,0.75525 0,0.49191 0.178875,0.75525 0.178875,0.25838 0.531657,0.25838 0.402468,0 0.586312,-0.21366 0.183844,-0.21863 0.183844,-0.70059 v -0.10435 q 0,-0.54159 -0.188813,-0.78009 -0.188812,-0.2385 -0.591281,-0.2385 z"
         style="fill:#000000"
         id="path142211" /><path
         d="m 47.906742,113.64926 q 0.07453,0 0.159,0.01 0.08447,0.005 0.154031,0.0199 l -0.05466,0.40247 q -0.06459,-0.0149 -0.144094,-0.0248 -0.0795,-0.01 -0.144094,-0.01 -0.203719,0 -0.382594,0.11428 -0.178875,0.10931 -0.288187,0.31303 -0.104344,0.19875 -0.104344,0.46707 v 1.42106 h -0.43725 v -2.66325 h 0.35775 l 0.04969,0.48694 h 0.01987 q 0.124218,-0.21863 0.327937,-0.37763 0.208688,-0.159 0.486938,-0.159 z"
         style="fill:#000000"
         id="path142213" /><path
         d="m 49.625927,113.65423 q 0.486938,0 0.720469,0.21366 0.233531,0.21365 0.233531,0.68071 v 1.8136 h -0.318 l -0.08447,-0.37763 h -0.01987 q -0.173906,0.21863 -0.367687,0.32297 -0.193781,0.10435 -0.526688,0.10435 -0.362718,0 -0.601218,-0.18882 -0.2385,-0.19378 -0.2385,-0.60122 0,-0.3975 0.313031,-0.61115 0.313031,-0.21863 0.963937,-0.2385 l 0.452157,-0.0149 v -0.159 q 0,-0.3329 -0.144094,-0.46209 -0.144094,-0.12919 -0.407438,-0.12919 -0.208687,0 -0.3975,0.0646 -0.188812,0.0596 -0.352781,0.13913 l -0.134156,-0.32794 q 0.173906,-0.0944 0.412406,-0.159 0.2385,-0.0696 0.496875,-0.0696 z m 0.521719,1.40616 -0.392531,0.0149 q -0.496875,0.0199 -0.690657,0.159 -0.188812,0.13913 -0.188812,0.39253 0,0.2236 0.134156,0.32794 0.139125,0.10434 0.352781,0.10434 0.332907,0 0.5565,-0.18384 0.228563,-0.18881 0.228563,-0.57637 z"
         style="fill:#000000"
         id="path142215" /><path
         d="m 52.671776,113.64926 q 0.491906,0 0.790031,0.34284 0.303094,0.34285 0.303094,1.0335 0,0.68072 -0.303094,1.0335 -0.298125,0.35279 -0.795,0.35279 -0.308062,0 -0.511781,-0.11429 -0.19875,-0.11428 -0.313031,-0.27328 h -0.02981 q 0.005,0.0845 0.01491,0.21366 0.01491,0.12919 0.01491,0.22359 v 1.09313 h -0.43725 v -3.85575 h 0.35775 l 0.05962,0.36272 h 0.01987 q 0.11925,-0.17391 0.313031,-0.29316 0.193781,-0.11925 0.51675,-0.11925 z m -0.0795,0.36769 q -0.407438,0 -0.576375,0.22856 -0.168938,0.22856 -0.173906,0.69563 v 0.0845 q 0,0.49191 0.159,0.76022 0.163968,0.26335 0.601218,0.26335 0.2385,0 0.3975,-0.12919 0.159,-0.13416 0.233532,-0.36769 0.0795,-0.23353 0.0795,-0.53165 0,-0.45713 -0.178875,-0.73041 -0.173907,-0.27328 -0.541594,-0.27328 z"
         style="fill:#000000"
         id="path142217" /><path
         d="m 54.897773,112.58595 v 1.10803 q 0,0.19875 -0.02484,0.37266 h 0.02981 q 0.129187,-0.20372 0.347812,-0.30807 0.223594,-0.10434 0.481969,-0.10434 0.481969,0 0.725438,0.23353 0.248437,0.22856 0.248437,0.74034 v 1.7341 h -0.432281 v -1.70428 q 0,-0.64097 -0.59625,-0.64097 -0.447188,0 -0.616125,0.2534 -0.163969,0.24844 -0.163969,0.7155 v 1.37635 h -0.43725 v -3.77625 z"
         style="fill:#000000"
         id="path142219" /><path
         d="m 57.113836,113.69895 h 0.467063 l 0.576375,1.51547 q 0.07453,0.20372 0.134156,0.38259 0.05963,0.17888 0.08944,0.34284 h 0.01987 q 0.02981,-0.12421 0.09441,-0.32296 0.06459,-0.20372 0.134156,-0.40744 l 0.541594,-1.5105 h 0.472031 l -1.147781,3.03094 q -0.144094,0.37762 -0.362719,0.60121 -0.218625,0.2236 -0.606187,0.2236 -0.11925,0 -0.208688,-0.0149 -0.08944,-0.01 -0.154031,-0.0248 v -0.34781 q 0.05466,0.01 0.129187,0.0199 0.0795,0.01 0.163969,0.01 0.228563,0 0.367688,-0.12919 0.139125,-0.12919 0.223593,-0.34284 l 0.139125,-0.35278 z"
         style="fill:#000000"
         id="path142221" /><path
         d="m 63.399307,116.3622 h -1.982531 v -3.54769 h 1.982531 v 0.39253 h -1.535344 v 1.10803 h 1.445906 v 0.38757 h -1.445906 v 1.26703 h 1.535344 z"
         style="fill:#000000"
         id="path142223" /><path
         d="m 65.401713,113.64926 q 0.477,0 0.720469,0.23353 0.243468,0.23353 0.243468,0.74531 v 1.7341 h -0.432281 v -1.70428 q 0,-0.64097 -0.59625,-0.64097 -0.442219,0 -0.611156,0.24844 -0.168938,0.24843 -0.168938,0.7155 v 1.38131 h -0.43725 v -2.66325 h 0.352782 l 0.06459,0.36272 h 0.02484 q 0.129188,-0.20869 0.35775,-0.30807 0.228563,-0.10434 0.481969,-0.10434 z"
         style="fill:#000000"
         id="path142225" /><path
         d="m 68.134524,113.64926 q 0.263344,0 0.472031,0.0994 0.213657,0.0994 0.362719,0.30309 h 0.02484 l 0.05962,-0.35278 h 0.347812 v 2.70797 q 0,0.5714 -0.293156,0.85959 -0.288187,0.28819 -0.899344,0.28819 -0.586312,0 -0.958968,-0.16894 v -0.40247 q 0.392531,0.20869 0.983812,0.20869 0.342844,0 0.536625,-0.20372 0.19875,-0.19875 0.19875,-0.54656 v -0.10435 q 0,-0.0596 0.005,-0.16893 0.005,-0.11428 0.0099,-0.159 h -0.01987 q -0.268312,0.40247 -0.824812,0.40247 -0.51675,0 -0.809906,-0.36272 -0.288188,-0.36272 -0.288188,-1.01363 0,-0.636 0.288188,-1.00865 0.293156,-0.37763 0.804937,-0.37763 z m 0.05962,0.36769 q -0.332906,0 -0.51675,0.26831 -0.183844,0.26334 -0.183844,0.75525 0,0.49191 0.178875,0.75525 0.178875,0.25838 0.531657,0.25838 0.402468,0 0.586312,-0.21366 0.183844,-0.21863 0.183844,-0.70059 v -0.10435 q 0,-0.54159 -0.188813,-0.78009 -0.188812,-0.2385 -0.591281,-0.2385 z"
         style="fill:#000000"
         id="path142227" /><path
         d="m 70.469838,112.70023 q 0.09938,0 0.173906,0.0696 0.0795,0.0646 0.0795,0.20869 0,0.14409 -0.0795,0.21366 -0.07453,0.0646 -0.173906,0.0646 -0.109313,0 -0.183844,-0.0646 -0.07453,-0.0696 -0.07453,-0.21366 0,-0.14409 0.07453,-0.20869 0.07453,-0.0696 0.183844,-0.0696 z m 0.213656,0.99872 v 2.66325 h -0.43725 v -2.66325 z"
         style="fill:#000000"
         id="path142229" /><path
         d="m 72.810114,113.64926 q 0.477,0 0.720469,0.23353 0.243469,0.23353 0.243469,0.74531 v 1.7341 h -0.432281 v -1.70428 q 0,-0.64097 -0.59625,-0.64097 -0.442219,0 -0.611157,0.24844 -0.168937,0.24843 -0.168937,0.7155 v 1.38131 h -0.43725 v -2.66325 h 0.352781 l 0.06459,0.36272 h 0.02484 q 0.129187,-0.20869 0.35775,-0.30807 0.228562,-0.10434 0.481968,-0.10434 z"
         style="fill:#000000"
         id="path142231" /><path
         d="m 75.627398,113.64926 q 0.337875,0 0.586313,0.14906 0.248437,0.14907 0.377625,0.42235 0.134156,0.26831 0.134156,0.63103 v 0.26334 h -1.823531 q 0.0099,0.45216 0.228562,0.69066 0.223594,0.23353 0.621094,0.23353 0.253406,0 0.447187,-0.0447 0.19875,-0.0497 0.407438,-0.13912 v 0.38259 q -0.203719,0.0894 -0.402469,0.12919 -0.19875,0.0447 -0.472031,0.0447 -0.382594,0 -0.670781,-0.15404 -0.288188,-0.15403 -0.452157,-0.45712 -0.159,-0.30309 -0.159,-0.75028 0,-0.43725 0.144094,-0.75028 0.149063,-0.31303 0.412406,-0.48197 0.268313,-0.16894 0.621094,-0.16894 z m -0.005,0.35775 q -0.313031,0 -0.496875,0.20372 -0.178875,0.19875 -0.213656,0.5565 h 1.356469 q -0.005,-0.33788 -0.159,-0.54656 -0.154031,-0.21366 -0.486938,-0.21366 z"
         style="fill:#000000"
         id="path142233" /><path
         d="m 79.781269,112.75985 q 0.3975,0 0.626063,0.20372 0.233531,0.19875 0.233531,0.56147 0,0.31303 -0.203719,0.53166 -0.19875,0.21862 -0.506812,0.3975 l 0.958968,0.92419 q 0.129188,-0.15404 0.208688,-0.35279 0.08447,-0.20371 0.139125,-0.43725 h 0.442219 q -0.0795,0.32297 -0.19875,0.59625 -0.11925,0.26832 -0.308063,0.47204 l 0.725438,0.70556 h -0.591282 l -0.432281,-0.41738 q -0.233531,0.20869 -0.521719,0.33788 -0.288187,0.12919 -0.700593,0.12919 -0.51675,0 -0.819844,-0.25341 -0.298125,-0.25341 -0.298125,-0.72047 0,-0.37762 0.203719,-0.61116 0.208687,-0.23353 0.561468,-0.43228 -0.159,-0.17887 -0.298125,-0.38259 -0.134156,-0.20372 -0.134156,-0.477 0,-0.36272 0.243469,-0.56644 0.243469,-0.20869 0.670781,-0.20869 z m -0.01491,0.35775 q -0.208688,0 -0.342844,0.10932 -0.129187,0.10931 -0.129187,0.30309 0,0.17888 0.09441,0.33291 0.09441,0.14906 0.273281,0.3329 0.293156,-0.16893 0.417375,-0.318 0.129188,-0.14906 0.129188,-0.35278 0,-0.17887 -0.11925,-0.29315 -0.11925,-0.11429 -0.322969,-0.11429 z m -0.203719,1.55025 q -0.268312,0.159 -0.422344,0.32297 -0.149062,0.16397 -0.149062,0.43228 0,0.27329 0.183844,0.43725 0.183843,0.16397 0.491906,0.16397 0.318,0 0.541594,-0.10434 0.228562,-0.10434 0.387562,-0.24844 z"
         style="fill:#000000"
         id="path142235" /><path
         d="m 84.660582,112.81451 q 0.660844,0 0.973875,0.25341 0.318,0.24843 0.318,0.75525 0,0.28322 -0.104343,0.47203 -0.104344,0.18881 -0.268313,0.30309 -0.159,0.11428 -0.337875,0.17391 l 0.973875,1.59 h -0.521719 l -0.859593,-1.46578 h -0.705563 v 1.46578 h -0.447187 v -3.54769 z m -0.02484,0.38756 h -0.506813 v 1.31672 h 0.531656 q 0.432282,0 0.631032,-0.16894 0.19875,-0.1739 0.19875,-0.50681 0,-0.34781 -0.208688,-0.4919 -0.208687,-0.14907 -0.645937,-0.14907 z"
         style="fill:#000000"
         id="path142237" /><path
         d="m 87.741206,113.64926 q 0.337875,0 0.586312,0.14906 0.248438,0.14907 0.377625,0.42235 0.134157,0.26831 0.134157,0.63103 v 0.26334 h -1.823532 q 0.0099,0.45216 0.228563,0.69066 0.223594,0.23353 0.621094,0.23353 0.253406,0 0.447187,-0.0447 0.19875,-0.0497 0.407438,-0.13912 v 0.38259 q -0.203719,0.0894 -0.402469,0.12919 -0.19875,0.0447 -0.472031,0.0447 -0.382594,0 -0.670782,-0.15404 -0.288187,-0.15403 -0.452156,-0.45712 -0.159,-0.30309 -0.159,-0.75028 0,-0.43725 0.144094,-0.75028 0.149062,-0.31303 0.412406,-0.48197 0.268313,-0.16894 0.621094,-0.16894 z m -0.005,0.35775 q -0.313031,0 -0.496875,0.20372 -0.178875,0.19875 -0.213656,0.5565 h 1.356469 q -0.005,-0.33788 -0.159,-0.54656 -0.154032,-0.21366 -0.486938,-0.21366 z"
         style="fill:#000000"
         id="path142239" /><path
         d="m 90.796984,113.64926 q 0.477,0 0.720469,0.23353 0.243469,0.23353 0.243469,0.74531 v 1.7341 H 91.32864 v -1.70428 q 0,-0.64097 -0.59625,-0.64097 -0.442218,0 -0.611156,0.24844 -0.168937,0.24843 -0.168937,0.7155 v 1.38131 h -0.43725 v -2.66325 h 0.352781 l 0.06459,0.36272 h 0.02484 q 0.129188,-0.20869 0.35775,-0.30807 0.228563,-0.10434 0.481969,-0.10434 z"
         style="fill:#000000"
         id="path142241" /><path
         d="m 93.529799,116.41189 q -0.496875,0 -0.795,-0.34285 -0.298125,-0.34781 -0.298125,-1.0335 0,-0.68569 0.298125,-1.0335 0.303094,-0.35278 0.799969,-0.35278 0.308063,0 0.501844,0.11428 0.19875,0.11428 0.322969,0.27825 h 0.02981 q -0.0099,-0.0646 -0.01987,-0.18881 -0.0099,-0.12919 -0.0099,-0.20372 v -1.06331 h 0.43725 v 3.77625 h -0.352782 l -0.06459,-0.35775 h -0.01987 q -0.11925,0.16894 -0.318,0.28819 -0.19875,0.11925 -0.511782,0.11925 z m 0.06956,-0.36272 q 0.422344,0 0.591281,-0.22857 0.173906,-0.23353 0.173906,-0.70059 v -0.0795 q 0,-0.49687 -0.163968,-0.76022 -0.163969,-0.26831 -0.606188,-0.26831 -0.352781,0 -0.531656,0.28322 -0.173906,0.27825 -0.173906,0.75028 0,0.477 0.173906,0.74034 0.178875,0.26335 0.536625,0.26335 z"
         style="fill:#000000"
         id="path142243" /><path
         d="m 96.670047,113.64926 q 0.337875,0 0.586312,0.14906 0.248438,0.14907 0.377625,0.42235 0.134156,0.26831 0.134156,0.63103 v 0.26334 h -1.823531 q 0.0099,0.45216 0.228563,0.69066 0.223593,0.23353 0.621093,0.23353 0.253407,0 0.447188,-0.0447 0.19875,-0.0497 0.407437,-0.13912 v 0.38259 q -0.203718,0.0894 -0.402468,0.12919 -0.19875,0.0447 -0.472032,0.0447 -0.382593,0 -0.670781,-0.15404 -0.288187,-0.15403 -0.452156,-0.45712 -0.159,-0.30309 -0.159,-0.75028 0,-0.43725 0.144094,-0.75028 0.149062,-0.31303 0.412406,-0.48197 0.268312,-0.16894 0.621094,-0.16894 z m -0.005,0.35775 q -0.313031,0 -0.496875,0.20372 -0.178875,0.19875 -0.213656,0.5565 h 1.356468 q -0.005,-0.33788 -0.159,-0.54656 -0.154031,-0.21366 -0.486937,-0.21366 z"
         style="fill:#000000"
         id="path142245" /><path
         d="m 99.686071,113.64926 q 0.07453,0 0.159,0.01 0.08447,0.005 0.154031,0.0199 l -0.05466,0.40247 q -0.06459,-0.0149 -0.144094,-0.0248 -0.0795,-0.01 -0.144094,-0.01 -0.203718,0 -0.382593,0.11428 -0.178875,0.10931 -0.288188,0.31303 -0.104344,0.19875 -0.104344,0.46707 v 1.42106 h -0.43725 v -2.66325 h 0.35775 l 0.04969,0.48694 h 0.01987 q 0.124219,-0.21863 0.327937,-0.37763 0.208688,-0.159 0.486938,-0.159 z"
         style="fill:#000000"
         id="path142247" /><path
         d="m 101.42514,113.64926 q 0.33787,0 0.58631,0.14906 0.24844,0.14907 0.37762,0.42235 0.13416,0.26831 0.13416,0.63103 v 0.26334 h -1.82353 q 0.01,0.45216 0.22856,0.69066 0.22359,0.23353 0.62109,0.23353 0.25341,0 0.44719,-0.0447 0.19875,-0.0497 0.40744,-0.13912 v 0.38259 q -0.20372,0.0894 -0.40247,0.12919 -0.19875,0.0447 -0.47203,0.0447 -0.38259,0 -0.67078,-0.15404 -0.28819,-0.15403 -0.45216,-0.45712 -0.159,-0.30309 -0.159,-0.75028 0,-0.43725 0.1441,-0.75028 0.14906,-0.31303 0.4124,-0.48197 0.26831,-0.16894 0.6211,-0.16894 z m -0.005,0.35775 q -0.31303,0 -0.49688,0.20372 -0.17887,0.19875 -0.21365,0.5565 h 1.35646 q -0.005,-0.33788 -0.159,-0.54656 -0.15403,-0.21366 -0.48693,-0.21366 z"
         style="fill:#000000"
         id="path142249" /><path
         d="m 104.44116,113.64926 q 0.0745,0 0.159,0.01 0.0845,0.005 0.15403,0.0199 l -0.0547,0.40247 q -0.0646,-0.0149 -0.14409,-0.0248 -0.0795,-0.01 -0.14409,-0.01 -0.20372,0 -0.3826,0.11428 -0.17887,0.10931 -0.28818,0.31303 -0.10435,0.19875 -0.10435,0.46707 v 1.42106 h -0.43725 v -2.66325 h 0.35775 l 0.0497,0.48694 h 0.0199 q 0.12422,-0.21863 0.32794,-0.37763 0.20869,-0.159 0.48694,-0.159 z"
         style="fill:#000000"
         id="path142251" /></g></g></svg>
